<svg xmlns="http://www.w3.org/2000/svg" xmlns:xlink="http://www.w3.org/1999/xlink" viewBox="0 0 92.53 92.53"><defs><style>.cls-1{fill:url(#New_Gradient_Swatch_copy_4);}.cls-2{fill:url(#New_Gradient_Swatch_copy_4-2);}.cls-3{fill:url(#New_Gradient_Swatch_copy_3);}.cls-4{fill:url(#New_Gradient_Swatch_copy_3-2);}</style><linearGradient id="New_Gradient_Swatch_copy_4" x1="9.68" y1="35.38" x2="40.44" y2="71.03" gradientUnits="userSpaceOnUse"><stop offset="0" stop-color="#93d8de"/><stop offset="1" stop-color="#65c8d0"/></linearGradient><linearGradient id="New_Gradient_Swatch_copy_4-2" x1="83.62" y1="53.83" x2="59.86" y2="31.46" xlink:href="#New_Gradient_Swatch_copy_4"/><linearGradient id="New_Gradient_Swatch_copy_3" x1="15.48" y1="29.44" x2="74.36" y2="29.44" gradientUnits="userSpaceOnUse"><stop offset="0" stop-color="#221eca"/><stop offset="1" stop-color="#6461da"/></linearGradient><linearGradient id="New_Gradient_Swatch_copy_3-2" x1="68.96" y1="37.11" x2="38.9" y2="86.74" xlink:href="#New_Gradient_Swatch_copy_3"/></defs><g id="Layer_2" data-name="Layer 2"><g id="object"><path class="cls-1" d="M58.88,58.87a31,31,0,0,1-12.61,14h0a30.81,30.81,0,0,1-28.09,1.47h0A30.79,30.79,0,0,1,0,47.16c0-.3,0-.59,0-.89s0-.6,0-.9A30.79,30.79,0,0,1,18.17,18.18a30.8,30.8,0,0,0,1.49,28.08h0a30.88,30.88,0,0,0,14,12.6h0a30.8,30.8,0,0,0,25.22,0Z"/><path class="cls-2" d="M92.53,46.27c0,.3,0,.59,0,.89A30.78,30.78,0,0,1,74.36,74.35a30.83,30.83,0,0,0-1.48-28.08h0a31,31,0,0,0-14-12.61,30.88,30.88,0,0,0-25.21,0,30.87,30.87,0,0,1,12.6-14h0A30.77,30.77,0,0,1,92.51,45.37C92.52,45.67,92.53,46,92.53,46.27Z"/><path class="cls-3" d="M74.36,18.18a30.77,30.77,0,0,0-28.09,1.48h0a30.87,30.87,0,0,0-12.6,14,30.85,30.85,0,0,0,0,25.22,30.88,30.88,0,0,1-14-12.6h0A30.77,30.77,0,0,1,45.37,0h1.79A30.8,30.8,0,0,1,74.36,18.18Z"/><path class="cls-4" d="M77.05,61.74A30.75,30.75,0,0,1,47.16,92.51l-.89,0-.9,0a30.79,30.79,0,0,1-27.2-18.16,30.81,30.81,0,0,0,28.09-1.47h0a31,31,0,0,0,12.61-14,30.85,30.85,0,0,0,0-25.22,31,31,0,0,1,14,12.61h0A30.6,30.6,0,0,1,77.05,61.74Z"/></g></g></svg>