<?xml version="1.0" encoding="utf-8"?>
<!-- Generator: Adobe Illustrator 26.0.1, SVG Export Plug-In . SVG Version: 6.00 Build 0)  -->
<svg version="1.1" id="Layer_1" xmlns="http://www.w3.org/2000/svg" xmlns:xlink="http://www.w3.org/1999/xlink" x="0px" y="0px"
	 viewBox="0 0 500 500" style="enable-background:new 0 0 500 500;" xml:space="preserve">
<style type="text/css">
	.st0{fill:url(#SVGID_1_);}
	.st1{fill:url(#SVGID_00000036956044232046992680000011808139460165962893_);}
	.st2{fill:url(#SVGID_00000159454262633463115250000006414320743911220919_);}
	.st3{fill:url(#SVGID_00000078763275239713039730000007403679213335331767_);}
	.st4{fill:url(#SVGID_00000042702236515335990420000004758058568994672543_);}
	.st5{fill:url(#SVGID_00000074414756787293860680000002699252316643865481_);}
	.st6{fill:#F8A24B;}
	.st7{clip-path:url(#SVGID_00000112634208162981784350000018225328168516611989_);}
	.st8{fill-rule:evenodd;clip-rule:evenodd;fill:#F8B050;}
	.st9{fill-rule:evenodd;clip-rule:evenodd;fill:#F7AE50;}
	.st10{fill-rule:evenodd;clip-rule:evenodd;fill:#F7AC4F;}
	.st11{fill-rule:evenodd;clip-rule:evenodd;fill:#F7AB4D;}
	.st12{fill-rule:evenodd;clip-rule:evenodd;fill:#F9AA4D;}
	.st13{fill-rule:evenodd;clip-rule:evenodd;fill:#F9A94D;}
	.st14{fill-rule:evenodd;clip-rule:evenodd;fill:#F9A74B;}
	.st15{fill-rule:evenodd;clip-rule:evenodd;fill:#F9A54C;}
	.st16{fill-rule:evenodd;clip-rule:evenodd;fill:#F9A44C;}
	.st17{fill-rule:evenodd;clip-rule:evenodd;fill:#F8A34B;}
	.st18{fill-rule:evenodd;clip-rule:evenodd;fill:#F8A24B;}
	.st19{fill-rule:evenodd;clip-rule:evenodd;fill:#F8A04B;}
	.st20{fill-rule:evenodd;clip-rule:evenodd;fill:#F89F4A;}
	.st21{fill-rule:evenodd;clip-rule:evenodd;fill:#F89D4B;}
	.st22{fill-rule:evenodd;clip-rule:evenodd;fill:#F79C4C;}
	.st23{fill-rule:evenodd;clip-rule:evenodd;fill:#F79A4A;}
	.st24{fill-rule:evenodd;clip-rule:evenodd;fill:#F7994C;}
	.st25{fill-rule:evenodd;clip-rule:evenodd;fill:#F7984C;}
	.st26{fill-rule:evenodd;clip-rule:evenodd;fill:#F7964A;}
	.st27{fill-rule:evenodd;clip-rule:evenodd;fill:#F6944B;}
	.st28{fill-rule:evenodd;clip-rule:evenodd;fill:#F69249;}
	.st29{fill-rule:evenodd;clip-rule:evenodd;fill:#F69149;}
	.st30{fill-rule:evenodd;clip-rule:evenodd;fill:#F68F4A;}
	.st31{fill-rule:evenodd;clip-rule:evenodd;fill:#F68E49;}
	.st32{fill-rule:evenodd;clip-rule:evenodd;fill:#F58C48;}
	.st33{fill-rule:evenodd;clip-rule:evenodd;fill:#F58B4A;}
	.st34{fill-rule:evenodd;clip-rule:evenodd;fill:#F58948;}
	.st35{fill-rule:evenodd;clip-rule:evenodd;fill:#F58848;}
	.st36{fill-rule:evenodd;clip-rule:evenodd;fill:#F58647;}
	.st37{fill-rule:evenodd;clip-rule:evenodd;fill:#F48546;}
	.st38{fill-rule:evenodd;clip-rule:evenodd;fill:#F48245;}
	.st39{fill-rule:evenodd;clip-rule:evenodd;fill:#F48144;}
	.st40{fill-rule:evenodd;clip-rule:evenodd;fill:#F48043;}
	.st41{fill-rule:evenodd;clip-rule:evenodd;fill:#F37E42;}
	.st42{fill-rule:evenodd;clip-rule:evenodd;fill:#F37C42;}
	.st43{fill-rule:evenodd;clip-rule:evenodd;fill:#F37941;}
	.st44{fill-rule:evenodd;clip-rule:evenodd;fill:#F37942;}
	.st45{fill-rule:evenodd;clip-rule:evenodd;fill:#F37741;}
	.st46{fill-rule:evenodd;clip-rule:evenodd;fill:#F37641;}
	.st47{fill-rule:evenodd;clip-rule:evenodd;fill:#F27340;}
	.st48{fill-rule:evenodd;clip-rule:evenodd;fill:#F27341;}
	.st49{fill-rule:evenodd;clip-rule:evenodd;fill:#F27040;}
	.st50{fill-rule:evenodd;clip-rule:evenodd;fill:#F26F40;}
	.st51{fill-rule:evenodd;clip-rule:evenodd;fill:#F26D40;}
	.st52{fill-rule:evenodd;clip-rule:evenodd;fill:#F26C3F;}
	.st53{fill-rule:evenodd;clip-rule:evenodd;fill:#F1683E;}
	.st54{fill-rule:evenodd;clip-rule:evenodd;fill:#F1653D;}
	.st55{fill-rule:evenodd;clip-rule:evenodd;fill:#F1623D;}
	.st56{fill-rule:evenodd;clip-rule:evenodd;fill:#F1613C;}
	.st57{fill-rule:evenodd;clip-rule:evenodd;fill:#F1623C;}
	.st58{fill-rule:evenodd;clip-rule:evenodd;fill:#F05F3C;}
	.st59{fill-rule:evenodd;clip-rule:evenodd;fill:#F05E3B;}
	.st60{fill-rule:evenodd;clip-rule:evenodd;fill:#F05C3B;}
	.st61{fill-rule:evenodd;clip-rule:evenodd;fill:#F05B3B;}
	.st62{fill-rule:evenodd;clip-rule:evenodd;fill:#F05A3B;}
	.st63{fill-rule:evenodd;clip-rule:evenodd;fill:#F0583B;}
	.st64{fill-rule:evenodd;clip-rule:evenodd;fill:#F0573B;}
	.st65{fill-rule:evenodd;clip-rule:evenodd;fill:#EF543A;}
	.st66{fill-rule:evenodd;clip-rule:evenodd;fill:#EF5339;}
	.st67{fill-rule:evenodd;clip-rule:evenodd;fill:#EF5139;}
	.st68{fill-rule:evenodd;clip-rule:evenodd;fill:#EF5038;}
	.st69{fill-rule:evenodd;clip-rule:evenodd;fill:#EF4F38;}
	.st70{fill-rule:evenodd;clip-rule:evenodd;fill:#EF4D37;}
	.st71{fill-rule:evenodd;clip-rule:evenodd;fill:#EF4B37;}
	.st72{fill-rule:evenodd;clip-rule:evenodd;fill:#EF4B36;}
	.st73{fill-rule:evenodd;clip-rule:evenodd;fill:#EE4837;}
	.st74{fill-rule:evenodd;clip-rule:evenodd;fill:#EE4737;}
	.st75{fill-rule:evenodd;clip-rule:evenodd;fill:#EE4536;}
	.st76{fill-rule:evenodd;clip-rule:evenodd;fill:#EE4436;}
	.st77{fill-rule:evenodd;clip-rule:evenodd;fill:#EE4237;}
	.st78{fill-rule:evenodd;clip-rule:evenodd;fill:#EE4235;}
	.st79{fill-rule:evenodd;clip-rule:evenodd;fill:#EE4035;}
	.st80{fill-rule:evenodd;clip-rule:evenodd;fill:#EE3F35;}
	.st81{fill-rule:evenodd;clip-rule:evenodd;fill:#EE3E34;}
	.st82{fill-rule:evenodd;clip-rule:evenodd;fill:#EE3E35;}
	.st83{fill-rule:evenodd;clip-rule:evenodd;fill:#EE3C34;}
	.st84{fill-rule:evenodd;clip-rule:evenodd;fill:#EE3A34;}
	.st85{fill-rule:evenodd;clip-rule:evenodd;fill:#EE3934;}
	.st86{fill-rule:evenodd;clip-rule:evenodd;fill:#EE3933;}
	.st87{fill-rule:evenodd;clip-rule:evenodd;fill:#EE3732;}
	.st88{fill-rule:evenodd;clip-rule:evenodd;fill:#ED3433;}
	.st89{fill-rule:evenodd;clip-rule:evenodd;fill:#ED3432;}
	.st90{fill-rule:evenodd;clip-rule:evenodd;fill:#ED3132;}
	.st91{fill-rule:evenodd;clip-rule:evenodd;fill:#ED2E31;}
	.st92{fill-rule:evenodd;clip-rule:evenodd;fill:#ED2E32;}
	.st93{fill-rule:evenodd;clip-rule:evenodd;fill:#ED2B30;}
	.st94{fill-rule:evenodd;clip-rule:evenodd;fill:#ED2A30;}
	.st95{fill-rule:evenodd;clip-rule:evenodd;fill:#ED2831;}
	.st96{fill-rule:evenodd;clip-rule:evenodd;fill:#ED2830;}
	.st97{fill-rule:evenodd;clip-rule:evenodd;fill:#EA2830;}
	.st98{fill-rule:evenodd;clip-rule:evenodd;fill:#E9252F;}
	.st99{fill-rule:evenodd;clip-rule:evenodd;fill:#E82630;}
	.st100{fill-rule:evenodd;clip-rule:evenodd;fill:#E62430;}
	.st101{fill-rule:evenodd;clip-rule:evenodd;fill:#E52530;}
	.st102{fill-rule:evenodd;clip-rule:evenodd;fill:#E5252F;}
	.st103{fill-rule:evenodd;clip-rule:evenodd;fill:#E42530;}
	.st104{fill:#F1683E;}
	.st105{fill:url(#SVGID_00000018230885090557026420000007499557507746392489_);}
	.st106{fill:url(#SVGID_00000023246507016018356920000000127058125952697017_);}
	.st107{fill:url(#SVGID_00000009556204474834904150000001180097746416510850_);}
	.st108{fill:url(#SVGID_00000029732944840290961410000011472304971644665735_);}
	.st109{fill:url(#SVGID_00000160190137760088221490000010404241121896154507_);}
</style>
<g>
	<g>
		<linearGradient id="SVGID_1_" gradientUnits="userSpaceOnUse" x1="76.6662" y1="308.3605" x2="77.1102" y2="410.0411">
			<stop  offset="0" style="stop-color:#3F7CBE"/>
			<stop  offset="1" style="stop-color:#40C0C9"/>
		</linearGradient>
		<path class="st0" d="M107.37,403.23c-2.02,0-3.72-0.7-5.08-2.1c-1.36-1.4-2.04-3.11-2.04-5.13v-43.17l-9.31,9.33
			c-1.86,1.87-3.98,3.31-6.34,4.32c-2.37,1.01-4.87,1.52-7.51,1.52c-2.64,0-5.16-0.51-7.57-1.52c-2.41-1.01-4.5-2.45-6.28-4.32
			l-9.43-9.45V396c0,2.02-0.71,3.73-2.12,5.13c-1.41,1.4-3.14,2.1-5.17,2.1c-2.04,0-3.76-0.7-5.18-2.1
			c-1.41-1.4-2.12-3.11-2.12-5.13v-60.56c0-2.02,0.7-3.73,2.1-5.13c1.4-1.4,3.11-2.1,5.13-2.1c1.48,0,2.84,0.43,4.08,1.28v-0.12
			l0.93,0.82l20.77,20.89c1.4,1.25,2.99,1.87,4.78,1.87c1.71,0,3.27-0.62,4.67-1.87l21.47-21.59h0.12c1.24-0.85,2.61-1.28,4.08-1.28
			c2.02,0,3.73,0.7,5.13,2.1c1.4,1.4,2.1,3.11,2.1,5.13V396c0,2.02-0.7,3.73-2.1,5.13C111.11,402.53,109.39,403.23,107.37,403.23z"
			/>
		
			<linearGradient id="SVGID_00000060032572026035792470000016947512879097424573_" gradientUnits="userSpaceOnUse" x1="162.3025" y1="307.9865" x2="162.7465" y2="409.6672">
			<stop  offset="0" style="stop-color:#3F7CBE"/>
			<stop  offset="1" style="stop-color:#40C0C9"/>
		</linearGradient>
		<path style="fill:url(#SVGID_00000060032572026035792470000016947512879097424573_);" d="M162.56,328.09
			c5.21,0,10.09,0.99,14.64,2.98c4.55,1.98,8.52,4.67,11.9,8.05c3.38,3.38,6.07,7.37,8.05,11.96c1.98,4.59,2.98,9.45,2.98,14.59V396
			c0,2.02-0.7,3.73-2.1,5.13c-1.4,1.4-3.11,2.1-5.13,2.1c-2.02,0-3.75-0.7-5.19-2.1c-1.44-1.4-2.16-3.11-2.16-5.13v-14h-22.99v-0.12
			c-0.23,0.08-0.66,0.12-1.28,0.12c-2.57,0-5.02,0.39-7.35,1.17c-2.33,0.78-4.45,1.87-6.36,3.27c-1.91,1.4-3.56,3.07-4.96,5.02
			c-1.4,1.95-2.45,4.08-3.15,6.42c-0.08,0.08-0.12,0.16-0.12,0.23c0,0.08-0.04,0.16-0.12,0.23c-0.47,1.48-1.32,2.67-2.57,3.56
			c-1.25,0.89-2.68,1.34-4.32,1.34c-2.02,0-3.73-0.7-5.13-2.1c-1.4-1.4-2.1-3.11-2.1-5.13v-1.05v-29.29c0-4.59,0.78-8.91,2.33-12.95
			c1.87-4.98,4.67-9.41,8.4-13.3c3.5-3.5,7.53-6.26,12.08-8.28C152.47,329.1,157.35,328.09,162.56,328.09z M185.55,367.41v-1.75
			c0-4.04-0.97-7.78-2.92-11.2c0-0.08-0.02-0.14-0.06-0.18c-0.04-0.04-0.06-0.1-0.06-0.17c-0.31-0.47-0.62-0.93-0.93-1.4
			c-0.31-0.47-0.62-0.89-0.93-1.28c-2.1-2.72-4.71-4.86-7.82-6.42c-3.11-1.56-6.53-2.33-10.27-2.33c-3.73,0-7.18,0.84-10.33,2.51
			c-3.15,1.67-5.78,3.87-7.88,6.59c-1.48,1.95-2.63,4.08-3.44,6.42s-1.23,4.82-1.23,7.47v8.63c3.03-2.18,6.38-3.87,10.03-5.08
			c3.66-1.21,7.51-1.81,11.55-1.81h1.28H185.55z"/>
		
			<linearGradient id="SVGID_00000075138859086459828610000015435032436437785525_" gradientUnits="userSpaceOnUse" x1="248.7539" y1="307.609" x2="249.1979" y2="409.2897">
			<stop  offset="0" style="stop-color:#3F7CBE"/>
			<stop  offset="1" style="stop-color:#40C0C9"/>
		</linearGradient>
		<path style="fill:url(#SVGID_00000075138859086459828610000015435032436437785525_);" d="M286.48,366.36
			c0,0.62-0.02,1.23-0.06,1.81c-0.04,0.58-0.1,1.19-0.18,1.81c-0.39,3.19-1.17,6.26-2.34,9.22c-1.17,2.96-2.67,5.72-4.5,8.28
			c-1.83,2.57-3.97,4.88-6.43,6.94c-2.45,2.06-5.12,3.79-8.01,5.19c-6,2.8-12.31,3.97-18.93,3.5c-6.62-0.47-12.7-2.57-18.23-6.3
			c-5.3-3.58-9.41-8.23-12.33-13.94c-2.92-5.72-4.3-11.77-4.15-18.14c0.15-3.97,0.89-7.82,2.22-11.55c1.32-3.73,3.19-7.19,5.6-10.39
			c3.03-3.97,6.73-7.18,11.08-9.63c4.36-2.45,8.98-3.99,13.89-4.61c4.9-0.62,9.76-0.27,14.59,1.05c4.82,1.32,9.18,3.5,13.07,6.53
			h0.12v-19.25c0-2.02,0.71-3.73,2.12-5.13c1.41-1.4,3.14-2.1,5.18-2.1c2.04,0,3.76,0.7,5.17,2.1c1.41,1.4,2.12,3.11,2.12,5.13
			v47.84V366.36z M266.24,380.95c2.72-3.19,4.49-6.83,5.31-10.91c0.82-4.08,0.52-8.11-0.88-12.08c-1.09-3.03-2.74-5.72-4.96-8.05
			s-4.77-4.12-7.64-5.37c-2.96-1.32-6.04-1.98-9.27-1.98c-3.22,0-6.27,0.66-9.14,1.98c-1.24,0.62-2.43,1.28-3.55,1.98
			c-1.13,0.7-2.19,1.52-3.2,2.45c-2.02,2.02-3.65,4.34-4.89,6.94c-1.24,2.61-1.94,5.39-2.1,8.34c-0.16,2.57,0.1,5.12,0.76,7.64
			c0.66,2.53,1.77,4.84,3.32,6.94c1.55,2.26,3.44,4.18,5.65,5.78c2.21,1.6,4.6,2.74,7.17,3.44c2.49,0.62,5.05,0.86,7.69,0.7
			c2.64-0.15,5.16-0.78,7.57-1.87c-0.62,0.31-1.25,0.6-1.87,0.88c-0.62,0.27-1.29,0.52-1.99,0.76c1.48-0.54,2.99-1.17,4.55-1.87
			C261.73,385.19,264.22,383.28,266.24,380.95z"/>
		
			<linearGradient id="SVGID_00000083061342993500011680000011144130729332567947_" gradientUnits="userSpaceOnUse" x1="311.2926" y1="307.3359" x2="311.7367" y2="409.0166">
			<stop  offset="0" style="stop-color:#3F7CBE"/>
			<stop  offset="1" style="stop-color:#40C0C9"/>
		</linearGradient>
		<path style="fill:url(#SVGID_00000083061342993500011680000011144130729332567947_);" d="M311.45,324.35
			c-2.02,0-3.73-0.71-5.13-2.14c-1.4-1.43-2.1-3.15-2.1-5.15c0-2.01,0.7-3.72,2.1-5.15c1.4-1.43,3.11-2.14,5.13-2.14
			c2.02,0,3.75,0.71,5.19,2.14c1.44,1.43,2.16,3.14,2.16,5.15c0,2.01-0.72,3.73-2.16,5.15C315.2,323.64,313.47,324.35,311.45,324.35
			z M311.45,333.11c2.02,0,3.75,0.72,5.19,2.16c1.44,1.44,2.16,3.17,2.16,5.19v29.99v0.82v0.7v3.15v20.65
			c0,2.02-0.72,3.75-2.16,5.19c-1.44,1.44-3.17,2.16-5.19,2.16c-2.02,0-3.73-0.72-5.13-2.16c-1.4-1.44-2.1-3.17-2.1-5.19v-20.65
			v-3.15v-0.7v-0.82v-29.99c0-2.02,0.7-3.75,2.1-5.19C307.71,333.83,309.43,333.11,311.45,333.11z"/>
		
			<linearGradient id="SVGID_00000067923081211258568310000001218450612554577337_" gradientUnits="userSpaceOnUse" x1="360.7168" y1="307.1201" x2="361.1609" y2="408.8008">
			<stop  offset="0" style="stop-color:#3F7CBE"/>
			<stop  offset="1" style="stop-color:#40C0C9"/>
		</linearGradient>
		<path style="fill:url(#SVGID_00000067923081211258568310000001218450612554577337_);" d="M383.33,396c0,1.95-0.68,3.6-2.04,4.96
			c-1.36,1.36-3.02,2.12-4.96,2.28h-0.23h-0.12h-0.7c-5.06-0.15-9.8-1.24-14.24-3.27c-4.43-2.02-8.3-4.73-11.59-8.11
			c-3.29-3.38-5.9-7.31-7.82-11.79c-1.92-4.47-2.88-9.28-2.88-14.41v-30.34c0-2.02,0.71-3.73,2.12-5.13c1.41-1.4,3.14-2.1,5.18-2.1
			c2.04,0,3.78,0.7,5.23,2.1c1.45,1.4,2.18,3.11,2.18,5.13l-0.12,30.34c0,3.11,0.58,6.03,1.75,8.75c1.17,2.72,2.74,5.12,4.73,7.18
			c1.98,2.06,4.32,3.73,7,5.02c2.68,1.28,5.54,1.97,8.58,2.04h0.58c2.02,0,3.75,0.72,5.19,2.16
			C382.61,392.25,383.33,393.98,383.33,396z"/>
		
			<linearGradient id="SVGID_00000018916726035042973400000016304945490686890161_" gradientUnits="userSpaceOnUse" x1="427.7646" y1="306.8273" x2="428.2087" y2="408.508">
			<stop  offset="0" style="stop-color:#3F7CBE"/>
			<stop  offset="1" style="stop-color:#40C0C9"/>
		</linearGradient>
		<path style="fill:url(#SVGID_00000018916726035042973400000016304945490686890161_);" d="M458.24,328.09
			c2.02,0,3.73,0.72,5.13,2.16c1.4,1.44,2.1,3.17,2.1,5.19v30.34c0,5.13-0.99,9.98-2.98,14.53c-1.98,4.55-4.67,8.52-8.05,11.9
			c-3.38,3.38-7.35,6.07-11.9,8.05c-4.55,1.98-9.39,2.98-14.53,2.98c-5.21,0-10.09-0.99-14.64-2.98c-4.55-1.98-8.52-4.67-11.9-8.05
			c-3.38-3.38-6.07-7.35-8.05-11.9c-1.98-4.55-2.98-9.39-2.98-14.53v-30.34c0-2.02,0.72-3.75,2.16-5.19
			c1.44-1.44,3.17-2.16,5.19-2.16c2.02,0,3.73,0.72,5.13,2.16c1.4,1.44,2.1,3.16,2.1,5.18v30.28c0,3.18,0.6,6.15,1.81,8.91
			c1.21,2.76,2.84,5.18,4.9,7.28c2.06,2.1,4.49,3.75,7.29,4.95c2.8,1.2,5.79,1.8,8.98,1.8c3.11,0,6.07-0.6,8.87-1.8
			c2.8-1.2,5.25-2.85,7.35-4.95c2.1-2.1,3.75-4.52,4.96-7.28c1.21-2.76,1.81-5.73,1.81-8.91h-0.12v-30.28
			c0-2.02,0.72-3.74,2.16-5.18C454.48,328.81,456.21,328.09,458.24,328.09z"/>
	</g>
	<g>
		<path class="st6" d="M64.02,455.2c0.74,0.76,1.11,1.67,1.11,2.73c0,1.07-0.37,1.97-1.11,2.7c-0.74,0.74-1.64,1.11-2.7,1.11h-4.55
			c-2.7,0-5.25-0.52-7.65-1.57c-2.4-1.04-4.49-2.46-6.28-4.24c-1.79-1.78-3.22-3.87-4.27-6.27c-1.05-2.4-1.58-4.96-1.58-7.71
			c0-2.7,0.53-5.25,1.58-7.65c1.05-2.4,2.48-4.48,4.27-6.27c1.79-1.78,3.89-3.19,6.28-4.24c2.4-1.04,4.94-1.57,7.65-1.57h4.55
			c1.06,0,1.97,0.37,2.7,1.11c0.74,0.74,1.11,1.64,1.11,2.7c0,1.07-0.37,1.98-1.11,2.73c-0.74,0.76-1.64,1.14-2.7,1.14h-4.55
			c-1.68,0-3.25,0.32-4.7,0.95c-1.45,0.64-2.73,1.5-3.84,2.58c-1.11,1.09-1.98,2.37-2.61,3.84c-0.64,1.47-0.95,3.03-0.95,4.67
			c0,1.68,0.32,3.26,0.95,4.73c0.63,1.47,1.5,2.75,2.61,3.84c1.11,1.08,2.39,1.95,3.84,2.58c1.45,0.63,3.02,0.95,4.7,0.95h4.55
			C62.38,454.07,63.28,454.44,64.02,455.2z"/>
		<path class="st6" d="M83.8,422.49c3.15-0.53,6.25-0.31,9.31,0.68c3.05,0.98,5.7,2.62,7.96,4.91c1.84,1.84,3.27,3.98,4.27,6.42
			c1,2.44,1.48,4.97,1.44,7.59c0,2.09-0.34,4.13-1.01,6.11c-0.68,1.99-1.63,3.82-2.86,5.5c-2.01,2.7-4.55,4.76-7.62,6.17
			c-3.07,1.41-6.27,2.02-9.58,1.81c-1.72-0.12-3.4-0.47-5.04-1.04c-1.64-0.57-3.16-1.33-4.58-2.27c-1.41-0.94-2.69-2.05-3.84-3.32
			c-1.15-1.27-2.11-2.68-2.89-4.24c-0.74-1.51-1.28-3.09-1.63-4.73c-0.35-1.64-0.48-3.29-0.4-4.95c0.08-1.66,0.36-3.3,0.83-4.91
			c0.47-1.62,1.16-3.14,2.06-4.58c0.29-0.53,0.63-1.06,1.04-1.6h0.06c1.51-2.05,3.36-3.71,5.53-4.98
			C79.03,423.8,81.34,422.94,83.8,422.49z M97.07,448.84c0.86-1.27,1.46-2.64,1.81-4.12c0.35-1.47,0.42-2.97,0.21-4.48
			c-0.25-1.51-0.7-2.85-1.35-3.99c-0.82-1.47-1.88-2.74-3.19-3.81c-1.31-1.06-2.79-1.8-4.42-2.21c-1.6-0.45-3.24-0.55-4.91-0.31
			c-1.68,0.25-3.24,0.82-4.67,1.72c-1.84,1.19-3.28,2.76-4.3,4.73c-1.02,1.97-1.47,4.05-1.35,6.27c0.08,1.72,0.51,3.32,1.29,4.79
			c0.2,0.37,0.4,0.75,0.58,1.14c0.18,0.39,0.4,0.77,0.65,1.14c-0.37-0.61-0.72-1.25-1.04-1.9c0.65,1.19,1.49,2.24,2.52,3.16
			c1.02,0.92,2.17,1.67,3.44,2.24c1.31,0.57,2.68,0.89,4.12,0.95c1.43,0.06,2.83-0.13,4.18-0.58c1.31-0.41,2.52-1.02,3.62-1.84
			C95.35,450.91,96.29,449.95,97.07,448.84z"/>
		<path class="st6" d="M143.02,422.12c1.06,0,1.98,0.38,2.73,1.14c0.76,0.76,1.14,1.67,1.14,2.73V440v0.98v16.89l-0.06,0.06v0.25
			v0.18v0.18c-0.04,0.04-0.06,0.1-0.06,0.18c0,0.04-0.01,0.07-0.03,0.09c-0.02,0.02-0.03,0.05-0.03,0.09c0,0.04-0.02,0.08-0.06,0.12
			c0,0.12-0.02,0.21-0.06,0.25c0,0.04-0.02,0.08-0.06,0.12c0,0.08-0.04,0.16-0.12,0.25v0.06c-0.04,0.04-0.07,0.08-0.09,0.12
			c-0.02,0.04-0.05,0.08-0.09,0.12v0.06c-0.04,0.04-0.07,0.08-0.09,0.12c-0.02,0.04-0.07,0.08-0.15,0.12v0.06l-0.25,0.25l-0.12,0.12
			l-0.12,0.12c-0.08,0.04-0.18,0.12-0.31,0.25c-0.08,0.04-0.13,0.07-0.15,0.09c-0.02,0.02-0.07,0.05-0.15,0.09h-0.06
			c-0.08,0.08-0.16,0.12-0.25,0.12c-0.04,0-0.06,0.02-0.06,0.06c-0.08,0-0.13,0.01-0.15,0.03c-0.02,0.02-0.07,0.03-0.15,0.03
			l-0.12,0.06c-0.04,0-0.07,0.01-0.09,0.03c-0.02,0.02-0.07,0.03-0.15,0.03h-0.12c-0.04,0-0.07,0.01-0.09,0.03
			c-0.02,0.02-0.07,0.03-0.15,0.03h-0.12h-0.25h-0.06h-0.06h-0.25h-0.18c-0.04,0-0.07-0.01-0.09-0.03
			c-0.02-0.02-0.05-0.03-0.09-0.03h-0.18c-0.04-0.04-0.1-0.06-0.18-0.06c-0.04,0-0.07-0.01-0.09-0.03
			c-0.02-0.02-0.05-0.03-0.09-0.03c-0.04,0-0.07-0.01-0.09-0.03c-0.02-0.02-0.05-0.03-0.09-0.03c-0.04,0-0.06-0.01-0.06-0.03
			c0-0.02-0.02-0.03-0.06-0.03l-0.25-0.12l-0.06-0.06c-0.08,0-0.16-0.04-0.25-0.12l-0.06-0.06l-0.25-0.12
			c0-0.04-0.01-0.06-0.03-0.06c-0.02,0-0.03-0.02-0.03-0.06c-0.04,0-0.1-0.04-0.18-0.12l-0.12-0.12l-0.06-0.06l-21.69-24.39V440
			v0.98v16.89c0,1.07-0.37,1.97-1.11,2.7c-0.74,0.74-1.64,1.11-2.7,1.11c-1.07,0-1.98-0.37-2.73-1.11c-0.76-0.74-1.14-1.64-1.14-2.7
			v-16.89V440v-14.01v-0.12v-0.25l0.06-0.06c0.08-0.94,0.49-1.76,1.23-2.46c0.78-0.7,1.7-1.02,2.76-0.98
			c1.06,0.04,1.94,0.47,2.64,1.29l21.69,24.33v-6.76V440v-14.01c0-1.06,0.37-1.97,1.11-2.73
			C141.05,422.5,141.95,422.12,143.02,422.12z"/>
		<path class="st6" d="M182.27,449.92c0,1.59-0.31,3.1-0.91,4.53c-0.61,1.43-1.43,2.68-2.47,3.74c-1.04,1.06-2.27,1.91-3.69,2.54
			c-1.43,0.63-2.94,0.95-4.53,0.95H153.7c-1.07,0-1.98-0.38-2.73-1.13c-0.76-0.75-1.14-1.66-1.14-2.71c0-1.06,0.38-1.96,1.14-2.71
			c0.76-0.75,1.67-1.13,2.73-1.13h16.83c1.11,0,2.06-0.4,2.86-1.21c0.8-0.8,1.2-1.76,1.2-2.88c0-1.16-0.4-2.13-1.2-2.94
			c-0.8-0.8-1.75-1.21-2.86-1.21h-7.99c-1.64,0-3.17-0.31-4.61-0.92c-1.43-0.61-2.68-1.45-3.75-2.52c-1.07-1.06-1.9-2.31-2.52-3.75
			s-0.92-2.97-0.92-4.61c0-1.64,0.31-3.17,0.92-4.61c0.61-1.43,1.45-2.68,2.52-3.75c1.06-1.06,2.3-1.91,3.72-2.55
			c1.41-0.63,2.94-0.95,4.58-0.95h7.8c1.06,0,1.98,0.38,2.73,1.13c0.76,0.75,1.14,1.66,1.14,2.71c0,1.06-0.38,1.96-1.14,2.71
			c-0.76,0.75-1.67,1.13-2.74,1.13h-7.83c-1.11,0.04-2.06,0.46-2.84,1.25s-1.17,1.77-1.17,2.93c0,1.12,0.39,2.09,1.17,2.9
			c0.78,0.81,1.74,1.22,2.89,1.22h7.99c1.64,0,3.17,0.32,4.61,0.95c1.43,0.63,2.68,1.48,3.75,2.54c1.06,1.06,1.9,2.31,2.52,3.74
			C181.96,446.75,182.27,448.29,182.27,449.92z"/>
		<path class="st6" d="M220.17,423.26c0.74,0.76,1.11,1.67,1.11,2.73c0,1.07-0.37,1.97-1.11,2.7c-0.74,0.74-1.64,1.11-2.7,1.11
			h-4.73h-5.1v28.07c0,1.07-0.38,1.97-1.14,2.7c-0.76,0.74-1.67,1.11-2.73,1.11c-1.07,0-1.97-0.37-2.7-1.11
			c-0.74-0.74-1.11-1.64-1.11-2.7V429.8h-4.67h-5.16c-1.07,0-1.97-0.37-2.7-1.11s-1.11-1.64-1.11-2.7c0-1.06,0.37-1.97,1.11-2.73
			c0.74-0.76,1.64-1.14,2.7-1.14h5.16h17.45h4.73C218.53,422.12,219.43,422.5,220.17,423.26z"/>
		<path class="st6" d="M245.94,423.32c0.72,0.72,1.08,1.59,1.08,2.61c0,1.07-0.38,1.98-1.14,2.73c-0.76,0.76-1.67,1.14-2.73,1.14
			h-0.31c-1.6,0.08-3.1,0.45-4.52,1.11c-1.41,0.66-2.64,1.53-3.69,2.61c-1.04,1.09-1.86,2.34-2.46,3.78
			c-0.59,1.43-0.89,2.97-0.89,4.61v15.97c0,1.07-0.38,1.97-1.14,2.7c-0.76,0.74-1.67,1.11-2.73,1.11c-1.07,0-1.97-0.37-2.7-1.11
			s-1.11-1.64-1.11-2.7V441.9c0-2.7,0.5-5.23,1.51-7.59c1-2.35,2.36-4.42,4.08-6.2c1.72-1.78,3.75-3.2,6.08-4.27
			c2.33-1.06,4.83-1.64,7.49-1.72h0.37h0.06h0.12C244.35,422.2,245.22,422.6,245.94,423.32z"/>
		<path class="st6" d="M287.25,422.12c1.06,0,1.97,0.38,2.7,1.14c0.74,0.76,1.11,1.67,1.11,2.73v15.97c0,2.7-0.52,5.25-1.57,7.65
			c-1.04,2.4-2.46,4.48-4.24,6.27c-1.78,1.78-3.87,3.19-6.27,4.24c-2.4,1.04-4.94,1.57-7.65,1.57c-2.74,0-5.31-0.52-7.71-1.57
			c-2.4-1.04-4.48-2.46-6.27-4.24c-1.78-1.78-3.19-3.87-4.24-6.27c-1.04-2.4-1.57-4.95-1.57-7.65v-15.97c0-1.06,0.38-1.97,1.14-2.73
			c0.76-0.76,1.67-1.14,2.73-1.14c1.06,0,1.97,0.38,2.7,1.13c0.74,0.76,1.11,1.67,1.11,2.73v15.94c0,1.68,0.32,3.24,0.95,4.69
			c0.63,1.45,1.49,2.73,2.58,3.83c1.08,1.1,2.37,1.97,3.84,2.61c1.47,0.63,3.05,0.95,4.73,0.95c1.64,0,3.19-0.32,4.67-0.95
			c1.47-0.63,2.76-1.5,3.87-2.61c1.11-1.1,1.97-2.38,2.61-3.83c0.63-1.45,0.95-3.02,0.95-4.69h-0.06v-15.94
			c0-1.06,0.38-1.97,1.14-2.73C285.27,422.5,286.19,422.12,287.25,422.12z"/>
		<path class="st6" d="M322.94,455.2c0.74,0.76,1.11,1.67,1.11,2.73c0,1.07-0.37,1.97-1.11,2.7c-0.74,0.74-1.64,1.11-2.7,1.11h-4.55
			c-2.7,0-5.25-0.52-7.65-1.57c-2.4-1.04-4.49-2.46-6.28-4.24c-1.79-1.78-3.22-3.87-4.27-6.27c-1.05-2.4-1.58-4.96-1.58-7.71
			c0-2.7,0.53-5.25,1.58-7.65c1.05-2.4,2.48-4.48,4.27-6.27c1.79-1.78,3.89-3.19,6.28-4.24c2.4-1.04,4.95-1.57,7.65-1.57h4.55
			c1.06,0,1.97,0.37,2.7,1.11c0.74,0.74,1.11,1.64,1.11,2.7c0,1.07-0.37,1.98-1.11,2.73s-1.64,1.14-2.7,1.14h-4.55
			c-1.68,0-3.25,0.32-4.7,0.95c-1.45,0.64-2.73,1.5-3.84,2.58c-1.11,1.09-1.98,2.37-2.61,3.84s-0.95,3.03-0.95,4.67
			c0,1.68,0.32,3.26,0.95,4.73c0.63,1.47,1.5,2.75,2.61,3.84c1.11,1.08,2.38,1.95,3.84,2.58c1.45,0.63,3.02,0.95,4.7,0.95h4.55
			C321.3,454.07,322.2,454.44,322.94,455.2z"/>
		<path class="st6" d="M360.47,423.26c0.74,0.76,1.11,1.67,1.11,2.73c0,1.07-0.37,1.97-1.11,2.7s-1.64,1.11-2.7,1.11h-4.73h-5.1
			v28.07c0,1.07-0.38,1.97-1.14,2.7s-1.67,1.11-2.73,1.11c-1.07,0-1.97-0.37-2.7-1.11c-0.74-0.74-1.11-1.64-1.11-2.7V429.8h-4.67
			h-5.16c-1.07,0-1.97-0.37-2.7-1.11c-0.74-0.74-1.11-1.64-1.11-2.7c0-1.06,0.37-1.97,1.11-2.73c0.74-0.76,1.64-1.14,2.7-1.14h5.16
			h17.45h4.73C358.84,422.12,359.74,422.5,360.47,423.26z"/>
		<path class="st6" d="M369.93,420.16c-1.07,0-1.97-0.38-2.7-1.13c-0.74-0.75-1.11-1.66-1.11-2.71c0-1.06,0.37-1.96,1.11-2.71
			c0.74-0.75,1.64-1.13,2.7-1.13c1.06,0,1.98,0.38,2.73,1.13c0.76,0.75,1.14,1.66,1.14,2.71c0,1.06-0.38,1.96-1.14,2.71
			C371.91,419.78,371,420.16,369.93,420.16z M369.93,424.76c1.06,0,1.98,0.38,2.73,1.14c0.76,0.76,1.14,1.67,1.14,2.73v15.79v0.43
			v0.37v1.66v10.87c0,1.07-0.38,1.98-1.14,2.73c-0.76,0.76-1.67,1.14-2.73,1.14c-1.07,0-1.97-0.38-2.7-1.14
			c-0.74-0.76-1.11-1.67-1.11-2.73v-10.87v-1.66v-0.37v-0.43v-15.79c0-1.06,0.37-1.97,1.11-2.73
			C367.97,425.14,368.87,424.76,369.93,424.76z"/>
		<path class="st6" d="M399.48,422.49c3.15-0.53,6.26-0.31,9.31,0.68c3.05,0.98,5.7,2.62,7.96,4.91c1.84,1.84,3.27,3.98,4.27,6.42
			c1,2.44,1.48,4.97,1.44,7.59c0,2.09-0.34,4.13-1.01,6.11c-0.68,1.99-1.63,3.82-2.86,5.5c-2.01,2.7-4.55,4.76-7.62,6.17
			c-3.07,1.41-6.27,2.02-9.58,1.81c-1.72-0.12-3.4-0.47-5.04-1.04c-1.64-0.57-3.16-1.33-4.58-2.27c-1.41-0.94-2.69-2.05-3.84-3.32
			c-1.15-1.27-2.11-2.68-2.89-4.24c-0.74-1.51-1.28-3.09-1.63-4.73c-0.35-1.64-0.48-3.29-0.4-4.95c0.08-1.66,0.36-3.3,0.83-4.91
			c0.47-1.62,1.16-3.14,2.06-4.58c0.29-0.53,0.63-1.06,1.04-1.6h0.06c1.51-2.05,3.36-3.71,5.53-4.98
			C394.71,423.8,397.02,422.94,399.48,422.49z M412.75,448.84c0.86-1.27,1.46-2.64,1.81-4.12c0.35-1.47,0.42-2.97,0.22-4.48
			c-0.25-1.51-0.7-2.85-1.35-3.99c-0.82-1.47-1.88-2.74-3.19-3.81c-1.31-1.06-2.79-1.8-4.42-2.21c-1.6-0.45-3.24-0.55-4.91-0.31
			c-1.68,0.25-3.24,0.82-4.67,1.72c-1.84,1.19-3.28,2.76-4.3,4.73c-1.02,1.97-1.47,4.05-1.35,6.27c0.08,1.72,0.51,3.32,1.29,4.79
			c0.2,0.37,0.4,0.75,0.58,1.14c0.18,0.39,0.4,0.77,0.64,1.14c-0.37-0.61-0.72-1.25-1.04-1.9c0.65,1.19,1.49,2.24,2.52,3.16
			c1.02,0.92,2.17,1.67,3.44,2.24c1.31,0.57,2.68,0.89,4.12,0.95s2.83-0.13,4.18-0.58c1.31-0.41,2.52-1.02,3.62-1.84
			C411.03,450.91,411.97,449.95,412.75,448.84z"/>
		<path class="st6" d="M458.7,422.12c1.06,0,1.98,0.38,2.73,1.14c0.76,0.76,1.14,1.67,1.14,2.73V440v0.98v16.89l-0.06,0.06v0.25
			v0.18v0.18c-0.04,0.04-0.06,0.1-0.06,0.18c0,0.04-0.01,0.07-0.03,0.09c-0.02,0.02-0.03,0.05-0.03,0.09c0,0.04-0.02,0.08-0.06,0.12
			c0,0.12-0.02,0.21-0.06,0.25c0,0.04-0.02,0.08-0.06,0.12c0,0.08-0.04,0.16-0.12,0.25v0.06c-0.04,0.04-0.07,0.08-0.09,0.12
			c-0.02,0.04-0.05,0.08-0.09,0.12v0.06c-0.04,0.04-0.07,0.08-0.09,0.12c-0.02,0.04-0.07,0.08-0.15,0.12v0.06l-0.25,0.25l-0.12,0.12
			l-0.12,0.12c-0.08,0.04-0.18,0.12-0.31,0.25c-0.08,0.04-0.13,0.07-0.15,0.09c-0.02,0.02-0.07,0.05-0.15,0.09h-0.06
			c-0.08,0.08-0.16,0.12-0.25,0.12c-0.04,0-0.06,0.02-0.06,0.06c-0.08,0-0.13,0.01-0.15,0.03s-0.07,0.03-0.15,0.03l-0.12,0.06
			c-0.04,0-0.07,0.01-0.09,0.03c-0.02,0.02-0.07,0.03-0.15,0.03h-0.12c-0.04,0-0.07,0.01-0.09,0.03c-0.02,0.02-0.07,0.03-0.15,0.03
			h-0.12h-0.25h-0.06h-0.06h-0.25h-0.18c-0.04,0-0.07-0.01-0.09-0.03s-0.05-0.03-0.09-0.03h-0.18c-0.04-0.04-0.1-0.06-0.18-0.06
			c-0.04,0-0.07-0.01-0.09-0.03s-0.05-0.03-0.09-0.03c-0.04,0-0.07-0.01-0.09-0.03s-0.05-0.03-0.09-0.03
			c-0.04,0-0.06-0.01-0.06-0.03c0-0.02-0.02-0.03-0.06-0.03l-0.25-0.12l-0.06-0.06c-0.08,0-0.16-0.04-0.25-0.12l-0.06-0.06
			l-0.25-0.12c0-0.04-0.01-0.06-0.03-0.06s-0.03-0.02-0.03-0.06c-0.04,0-0.1-0.04-0.18-0.12l-0.12-0.12l-0.06-0.06l-21.68-24.39V440
			v0.98v16.89c0,1.07-0.37,1.97-1.11,2.7s-1.64,1.11-2.7,1.11c-1.07,0-1.98-0.37-2.73-1.11c-0.76-0.74-1.14-1.64-1.14-2.7v-16.89
			V440v-14.01v-0.12v-0.25l0.06-0.06c0.08-0.94,0.49-1.76,1.23-2.46c0.78-0.7,1.7-1.02,2.76-0.98c1.06,0.04,1.94,0.47,2.64,1.29
			l21.68,24.33v-6.76V440v-14.01c0-1.06,0.37-1.97,1.11-2.73C456.73,422.5,457.63,422.12,458.7,422.12z"/>
	</g>
	<g>
		<g>
			<defs>
				<path id="SVGID_00000010999865458644420920000003753426930104818093_" d="M250.01,45.68c62.8,0,113.94,49.93,115.88,112.26
					l17.13,11.74c0.16-2.67,0.24-5.35,0.24-8.06c0-73.59-59.66-133.25-133.25-133.25c-73.59,0-133.25,59.66-133.25,133.25
					c0,2.7,0.08,5.39,0.24,8.06l17.13-11.74C136.06,95.61,187.2,45.68,250.01,45.68z"/>
			</defs>
			<clipPath id="SVGID_00000138565257786083797960000008812809774107972793_">
				<use xlink:href="#SVGID_00000010999865458644420920000003753426930104818093_"  style="overflow:visible;"/>
			</clipPath>
			<g style="clip-path:url(#SVGID_00000138565257786083797960000008812809774107972793_);">
				
					<rect x="378.59" y="-24.57" transform="matrix(0.963 -0.2694 0.2694 0.963 -5.2007 104.7088)" class="st8" width="0.48" height="191.74"/>
			</g>
			<g style="clip-path:url(#SVGID_00000138565257786083797960000008812809774107972793_);">
				
					<rect x="376.49" y="-24.46" transform="matrix(0.963 -0.2694 0.2694 0.963 -5.2469 104.5845)" class="st9" width="3.88" height="191.74"/>
			</g>
			<g style="clip-path:url(#SVGID_00000138565257786083797960000008812809774107972793_);">
				
					<rect x="374" y="-23.76" transform="matrix(0.963 -0.2694 0.2694 0.963 -5.5257 103.9524)" class="st10" width="3.88" height="191.74"/>
			</g>
			<g style="clip-path:url(#SVGID_00000138565257786083797960000008812809774107972793_);">
				
					<rect x="371.51" y="-23.07" transform="matrix(0.963 -0.2694 0.2694 0.963 -5.8061 103.3014)" class="st11" width="3.88" height="191.74"/>
			</g>
			<g style="clip-path:url(#SVGID_00000138565257786083797960000008812809774107972793_);">
				
					<rect x="369.01" y="-22.37" transform="matrix(0.963 -0.2694 0.2694 0.963 -6.0866 102.6504)" class="st12" width="3.88" height="191.74"/>
			</g>
			<g style="clip-path:url(#SVGID_00000138565257786083797960000008812809774107972793_);">
				
					<rect x="366.52" y="-21.67" transform="matrix(0.963 -0.2693 0.2693 0.963 -6.3683 101.9808)" class="st13" width="3.88" height="191.74"/>
			</g>
			<g style="clip-path:url(#SVGID_00000138565257786083797960000008812809774107972793_);">
				
					<rect x="364.03" y="-20.98" transform="matrix(0.9631 -0.2693 0.2693 0.9631 -6.6495 101.3167)" class="st14" width="3.88" height="191.74"/>
			</g>
			<g style="clip-path:url(#SVGID_00000138565257786083797960000008812809774107972793_);">
				
					<rect x="361.53" y="-20.28" transform="matrix(0.963 -0.2693 0.2693 0.963 -6.9278 100.6948)" class="st15" width="3.88" height="191.74"/>
			</g>
			<g style="clip-path:url(#SVGID_00000138565257786083797960000008812809774107972793_);">
				
					<rect x="359.04" y="-19.58" transform="matrix(0.963 -0.2694 0.2694 0.963 -7.2065 100.0674)" class="st16" width="3.88" height="191.74"/>
			</g>
			<g style="clip-path:url(#SVGID_00000138565257786083797960000008812809774107972793_);">
				
					<rect x="356.55" y="-18.88" transform="matrix(0.963 -0.2694 0.2694 0.963 -7.4867 99.4165)" class="st17" width="3.88" height="191.74"/>
			</g>
			<g style="clip-path:url(#SVGID_00000138565257786083797960000008812809774107972793_);">
				
					<rect x="354.06" y="-18.19" transform="matrix(0.963 -0.2694 0.2694 0.963 -7.7667 98.773)" class="st18" width="3.88" height="191.74"/>
			</g>
			<g style="clip-path:url(#SVGID_00000138565257786083797960000008812809774107972793_);">
				
					<rect x="351.56" y="-17.49" transform="matrix(0.963 -0.2694 0.2694 0.963 -8.0466 98.1273)" class="st19" width="3.88" height="191.74"/>
			</g>
			<g style="clip-path:url(#SVGID_00000138565257786083797960000008812809774107972793_);">
				
					<rect x="349.07" y="-16.79" transform="matrix(0.963 -0.2694 0.2694 0.963 -8.3264 97.4844)" class="st20" width="3.88" height="191.74"/>
			</g>
			<g style="clip-path:url(#SVGID_00000138565257786083797960000008812809774107972793_);">
				
					<rect x="346.58" y="-16.09" transform="matrix(0.963 -0.2694 0.2694 0.963 -8.6067 96.8337)" class="st21" width="3.88" height="191.74"/>
			</g>
			<g style="clip-path:url(#SVGID_00000138565257786083797960000008812809774107972793_);">
				
					<rect x="344.09" y="-15.4" transform="matrix(0.963 -0.2693 0.2693 0.963 -8.8872 96.1753)" class="st22" width="3.88" height="191.74"/>
			</g>
			<g style="clip-path:url(#SVGID_00000138565257786083797960000008812809774107972793_);">
				
					<rect x="341.59" y="-14.7" transform="matrix(0.9631 -0.2693 0.2693 0.9631 -9.168 95.5072)" class="st23" width="3.88" height="191.74"/>
			</g>
			<g style="clip-path:url(#SVGID_00000138565257786083797960000008812809774107972793_);">
				
					<rect x="339.1" y="-14" transform="matrix(0.963 -0.2693 0.2693 0.963 -9.4472 94.8792)" class="st24" width="3.88" height="191.74"/>
			</g>
			<g style="clip-path:url(#SVGID_00000138565257786083797960000008812809774107972793_);">
				
					<rect x="336.61" y="-13.31" transform="matrix(0.963 -0.2694 0.2694 0.963 -9.7262 94.2606)" class="st25" width="3.88" height="191.74"/>
			</g>
			<g style="clip-path:url(#SVGID_00000138565257786083797960000008812809774107972793_);">
				
					<rect x="334.11" y="-12.61" transform="matrix(0.963 -0.2694 0.2694 0.963 -10.0063 93.6099)" class="st26" width="3.88" height="191.74"/>
			</g>
			<g style="clip-path:url(#SVGID_00000138565257786083797960000008812809774107972793_);">
				
					<rect x="331.62" y="-11.91" transform="matrix(0.963 -0.2694 0.2694 0.963 -10.2865 92.9594)" class="st27" width="3.88" height="191.74"/>
			</g>
			<g style="clip-path:url(#SVGID_00000138565257786083797960000008812809774107972793_);">
				
					<rect x="329.13" y="-11.21" transform="matrix(0.963 -0.2694 0.2694 0.963 -10.5664 92.3158)" class="st28" width="3.88" height="191.74"/>
			</g>
			<g style="clip-path:url(#SVGID_00000138565257786083797960000008812809774107972793_);">
				
					<rect x="326.64" y="-10.52" transform="matrix(0.963 -0.2694 0.2694 0.963 -10.8463 91.6728)" class="st29" width="3.88" height="191.74"/>
			</g>
			<g style="clip-path:url(#SVGID_00000138565257786083797960000008812809774107972793_);">
				
					<rect x="324.14" y="-9.82" transform="matrix(0.963 -0.2694 0.2694 0.963 -11.1263 91.027)" class="st30" width="3.88" height="191.74"/>
			</g>
			<g style="clip-path:url(#SVGID_00000138565257786083797960000008812809774107972793_);">
				
					<rect x="321.65" y="-9.12" transform="matrix(0.963 -0.2694 0.2694 0.963 -11.4063 90.3766)" class="st31" width="3.88" height="191.74"/>
			</g>
			<g style="clip-path:url(#SVGID_00000138565257786083797960000008812809774107972793_);">
				
					<rect x="319.16" y="-8.42" transform="matrix(0.9631 -0.2693 0.2693 0.9631 -11.6865 89.7025)" class="st32" width="3.88" height="191.74"/>
			</g>
			<g style="clip-path:url(#SVGID_00000138565257786083797960000008812809774107972793_);">
				
					<rect x="316.67" y="-7.73" transform="matrix(0.963 -0.2693 0.2693 0.963 -11.9663 89.0688)" class="st33" width="3.88" height="191.74"/>
			</g>
			<g style="clip-path:url(#SVGID_00000138565257786083797960000008812809774107972793_);">
				
					<rect x="314.17" y="-7.03" transform="matrix(0.963 -0.2693 0.2693 0.963 -12.2462 88.4232)" class="st34" width="3.88" height="191.74"/>
			</g>
			<g style="clip-path:url(#SVGID_00000138565257786083797960000008812809774107972793_);">
				
					<rect x="311.68" y="-6.33" transform="matrix(0.963 -0.2694 0.2694 0.963 -12.5261 87.7866)" class="st35" width="3.88" height="191.74"/>
			</g>
			<g style="clip-path:url(#SVGID_00000138565257786083797960000008812809774107972793_);">
				
					<rect x="309.19" y="-5.64" transform="matrix(0.963 -0.2694 0.2694 0.963 -12.8062 87.1525)" class="st36" width="3.88" height="191.74"/>
			</g>
			<g style="clip-path:url(#SVGID_00000138565257786083797960000008812809774107972793_);">
				
					<rect x="306.7" y="-4.94" transform="matrix(0.963 -0.2694 0.2694 0.963 -13.0861 86.4998)" class="st37" width="3.88" height="191.74"/>
			</g>
			<g style="clip-path:url(#SVGID_00000138565257786083797960000008812809774107972793_);">
				
					<rect x="304.2" y="-4.24" transform="matrix(0.963 -0.2694 0.2694 0.963 -13.3664 85.8744)" class="st38" width="3.88" height="191.74"/>
			</g>
			<g style="clip-path:url(#SVGID_00000138565257786083797960000008812809774107972793_);">
				
					<rect x="301.71" y="-3.54" transform="matrix(0.963 -0.2694 0.2694 0.963 -13.6463 85.2197)" class="st38" width="3.88" height="191.74"/>
			</g>
			<g style="clip-path:url(#SVGID_00000138565257786083797960000008812809774107972793_);">
				
					<rect x="299.22" y="-2.85" transform="matrix(0.963 -0.2694 0.2694 0.963 -13.926 84.5652)" class="st39" width="3.88" height="191.74"/>
			</g>
			<g style="clip-path:url(#SVGID_00000138565257786083797960000008812809774107972793_);">
				
					<rect x="296.72" y="-2.15" transform="matrix(0.963 -0.2694 0.2694 0.963 -14.206 83.9195)" class="st40" width="3.88" height="191.74"/>
			</g>
			<g style="clip-path:url(#SVGID_00000138565257786083797960000008812809774107972793_);">
				
					<rect x="294.23" y="-1.45" transform="matrix(0.963 -0.2694 0.2694 0.963 -14.4861 83.2781)" class="st41" width="3.88" height="191.74"/>
			</g>
			<g style="clip-path:url(#SVGID_00000138565257786083797960000008812809774107972793_);">
				
					<rect x="291.74" y="-0.76" transform="matrix(0.963 -0.2693 0.2693 0.963 -14.7655 82.617)" class="st41" width="3.88" height="191.74"/>
			</g>
			<g style="clip-path:url(#SVGID_00000138565257786083797960000008812809774107972793_);">
				
					<rect x="289.25" y="-0.06" transform="matrix(0.963 -0.2693 0.2693 0.963 -15.0454 81.9714)" class="st42" width="3.88" height="191.74"/>
			</g>
			<g style="clip-path:url(#SVGID_00000138565257786083797960000008812809774107972793_);">
				
					<rect x="286.75" y="0.64" transform="matrix(0.963 -0.2693 0.2693 0.963 -15.3251 81.3215)" class="st43" width="3.88" height="191.74"/>
			</g>
			<g style="clip-path:url(#SVGID_00000138565257786083797960000008812809774107972793_);">
				
					<rect x="284.26" y="1.34" transform="matrix(0.963 -0.2694 0.2694 0.963 -15.6067 80.7077)" class="st44" width="3.88" height="191.74"/>
			</g>
			<g style="clip-path:url(#SVGID_00000138565257786083797960000008812809774107972793_);">
				
					<rect x="281.77" y="2.03" transform="matrix(0.963 -0.2694 0.2694 0.963 -15.8865 80.0577)" class="st45" width="3.88" height="191.74"/>
			</g>
			<g style="clip-path:url(#SVGID_00000138565257786083797960000008812809774107972793_);">
				
					<rect x="279.28" y="2.73" transform="matrix(0.963 -0.2694 0.2694 0.963 -16.166 79.4036)" class="st46" width="3.88" height="191.74"/>
			</g>
			<g style="clip-path:url(#SVGID_00000138565257786083797960000008812809774107972793_);">
				
					<rect x="276.78" y="3.43" transform="matrix(0.963 -0.2694 0.2694 0.963 -16.446 78.7579)" class="st47" width="3.88" height="191.74"/>
			</g>
			<g style="clip-path:url(#SVGID_00000138565257786083797960000008812809774107972793_);">
				
					<rect x="274.29" y="4.13" transform="matrix(0.963 -0.2694 0.2694 0.963 -16.7257 78.1081)" class="st48" width="3.88" height="191.74"/>
			</g>
			<g style="clip-path:url(#SVGID_00000138565257786083797960000008812809774107972793_);">
				
					<rect x="271.8" y="4.82" transform="matrix(0.963 -0.2693 0.2693 0.963 -17.0045 77.4479)" class="st49" width="3.88" height="191.74"/>
			</g>
			<g style="clip-path:url(#SVGID_00000138565257786083797960000008812809774107972793_);">
				
					<rect x="269.31" y="5.52" transform="matrix(0.963 -0.2693 0.2693 0.963 -17.2847 76.8064)" class="st49" width="3.88" height="191.74"/>
			</g>
			<g style="clip-path:url(#SVGID_00000138565257786083797960000008812809774107972793_);">
				
					<rect x="266.81" y="6.22" transform="matrix(0.963 -0.2694 0.2694 0.963 -17.565 76.1647)" class="st50" width="3.88" height="191.74"/>
			</g>
			<g style="clip-path:url(#SVGID_00000138565257786083797960000008812809774107972793_);">
				
					<rect x="264.32" y="6.91" transform="matrix(0.963 -0.2694 0.2694 0.963 -17.8455 75.5252)" class="st51" width="3.88" height="191.74"/>
			</g>
			<g style="clip-path:url(#SVGID_00000138565257786083797960000008812809774107972793_);">
				
					<rect x="261.83" y="7.61" transform="matrix(0.963 -0.2694 0.2694 0.963 -18.1255 74.8795)" class="st52" width="3.88" height="191.74"/>
			</g>
			<g style="clip-path:url(#SVGID_00000138565257786083797960000008812809774107972793_);">
				
					<rect x="259.33" y="8.31" transform="matrix(0.963 -0.2694 0.2694 0.963 -18.4072 74.2494)" class="st52" width="3.88" height="191.74"/>
			</g>
			<g style="clip-path:url(#SVGID_00000138565257786083797960000008812809774107972793_);">
				
					<rect x="256.84" y="9.01" transform="matrix(0.963 -0.2694 0.2694 0.963 -18.6854 73.5881)" class="st53" width="3.88" height="191.74"/>
			</g>
			<g style="clip-path:url(#SVGID_00000138565257786083797960000008812809774107972793_);">
				
					<rect x="254.35" y="9.7" transform="matrix(0.963 -0.2694 0.2694 0.963 -18.9658 72.9462)" class="st53" width="3.88" height="191.74"/>
			</g>
			<g style="clip-path:url(#SVGID_00000138565257786083797960000008812809774107972793_);">
				
					<rect x="251.86" y="10.4" transform="matrix(0.963 -0.2694 0.2694 0.963 -19.2458 72.3004)" class="st54" width="3.88" height="191.74"/>
			</g>
			<g style="clip-path:url(#SVGID_00000138565257786083797960000008812809774107972793_);">
				
					<rect x="249.36" y="11.1" transform="matrix(0.963 -0.2693 0.2693 0.963 -19.5241 71.6413)" class="st54" width="3.88" height="191.74"/>
			</g>
			<g style="clip-path:url(#SVGID_00000138565257786083797960000008812809774107972793_);">
				
					<rect x="246.87" y="11.79" transform="matrix(0.963 -0.2693 0.2693 0.963 -19.8035 70.9919)" class="st55" width="3.88" height="191.74"/>
			</g>
			<g style="clip-path:url(#SVGID_00000138565257786083797960000008812809774107972793_);">
				
					<rect x="244.38" y="12.49" transform="matrix(0.963 -0.2693 0.2693 0.963 -20.0834 70.3463)" class="st56" width="3.88" height="191.74"/>
			</g>
			<g style="clip-path:url(#SVGID_00000138565257786083797960000008812809774107972793_);">
				
					<rect x="241.89" y="13.19" transform="matrix(0.963 -0.2694 0.2694 0.963 -20.3644 69.708)" class="st57" width="3.88" height="191.74"/>
			</g>
			<g style="clip-path:url(#SVGID_00000138565257786083797960000008812809774107972793_);">
				
					<rect x="239.39" y="13.89" transform="matrix(0.963 -0.2694 0.2694 0.963 -20.6452 69.0681)" class="st58" width="3.88" height="191.74"/>
			</g>
			<g style="clip-path:url(#SVGID_00000138565257786083797960000008812809774107972793_);">
				
					<rect x="236.9" y="14.58" transform="matrix(0.963 -0.2694 0.2694 0.963 -20.9249 68.4203)" class="st59" width="3.88" height="191.74"/>
			</g>
			<g style="clip-path:url(#SVGID_00000138565257786083797960000008812809774107972793_);">
				
					<rect x="234.41" y="15.28" transform="matrix(0.963 -0.2694 0.2694 0.963 -21.2057 67.7803)" class="st60" width="3.88" height="191.74"/>
			</g>
			<g style="clip-path:url(#SVGID_00000138565257786083797960000008812809774107972793_);">
				
					<rect x="231.91" y="15.98" transform="matrix(0.963 -0.2694 0.2694 0.963 -21.4857 67.1345)" class="st61" width="3.88" height="191.74"/>
			</g>
			<g style="clip-path:url(#SVGID_00000138565257786083797960000008812809774107972793_);">
				
					<rect x="229.42" y="16.68" transform="matrix(0.963 -0.2694 0.2694 0.963 -21.7651 66.4852)" class="st62" width="3.88" height="191.74"/>
			</g>
			<g style="clip-path:url(#SVGID_00000138565257786083797960000008812809774107972793_);">
				
					<rect x="226.93" y="17.37" transform="matrix(0.963 -0.2694 0.2694 0.963 -22.0457 65.8431)" class="st63" width="3.88" height="191.74"/>
			</g>
			<g style="clip-path:url(#SVGID_00000138565257786083797960000008812809774107972793_);">
				
					<rect x="224.44" y="18.07" transform="matrix(0.963 -0.2693 0.2693 0.963 -22.3232 65.1849)" class="st64" width="3.88" height="191.74"/>
			</g>
			<g style="clip-path:url(#SVGID_00000138565257786083797960000008812809774107972793_);">
				
					<rect x="221.94" y="18.77" transform="matrix(0.963 -0.2693 0.2693 0.963 -22.6025 64.5359)" class="st64" width="3.88" height="191.74"/>
			</g>
			<g style="clip-path:url(#SVGID_00000138565257786083797960000008812809774107972793_);">
				
					<rect x="219.45" y="19.46" transform="matrix(0.963 -0.2693 0.2693 0.963 -22.8831 63.8937)" class="st65" width="3.88" height="191.74"/>
			</g>
			<g style="clip-path:url(#SVGID_00000138565257786083797960000008812809774107972793_);">
				
					<rect x="216.96" y="20.16" transform="matrix(0.963 -0.2693 0.2693 0.963 -23.163 63.248)" class="st66" width="3.88" height="191.74"/>
			</g>
			<g style="clip-path:url(#SVGID_00000138565257786083797960000008812809774107972793_);">
				
					<rect x="214.47" y="20.86" transform="matrix(0.963 -0.2693 0.2693 0.963 -23.4418 62.5971)" class="st67" width="3.88" height="191.74"/>
			</g>
			<g style="clip-path:url(#SVGID_00000138565257786083797960000008812809774107972793_);">
				
					<rect x="211.97" y="21.56" transform="matrix(0.963 -0.2694 0.2694 0.963 -23.7272 61.9752)" class="st68" width="3.88" height="191.74"/>
			</g>
			<g style="clip-path:url(#SVGID_00000138565257786083797960000008812809774107972793_);">
				
					<rect x="209.48" y="22.25" transform="matrix(0.963 -0.2694 0.2694 0.963 -24.0063 61.3261)" class="st69" width="3.88" height="191.74"/>
			</g>
			<g style="clip-path:url(#SVGID_00000138565257786083797960000008812809774107972793_);">
				
					<rect x="206.99" y="22.95" transform="matrix(0.963 -0.2694 0.2694 0.963 -24.2856 60.6771)" class="st70" width="3.88" height="191.74"/>
			</g>
			<g style="clip-path:url(#SVGID_00000138565257786083797960000008812809774107972793_);">
				
					<rect x="204.49" y="23.65" transform="matrix(0.963 -0.2694 0.2694 0.963 -24.5647 60.0282)" class="st71" width="3.88" height="191.74"/>
			</g>
			<g style="clip-path:url(#SVGID_00000138565257786083797960000008812809774107972793_);">
				
					<rect x="202" y="24.34" transform="matrix(0.963 -0.2693 0.2693 0.963 -24.8416 59.371)" class="st72" width="3.88" height="191.74"/>
			</g>
			<g style="clip-path:url(#SVGID_00000138565257786083797960000008812809774107972793_);">
				
					<rect x="199.51" y="25.04" transform="matrix(0.963 -0.2694 0.2694 0.963 -25.1255 58.7399)" class="st73" width="3.88" height="191.74"/>
			</g>
			<g style="clip-path:url(#SVGID_00000138565257786083797960000008812809774107972793_);">
				
					<rect x="197.02" y="25.74" transform="matrix(0.963 -0.2693 0.2693 0.963 -25.4023 58.083)" class="st74" width="3.88" height="191.74"/>
			</g>
			<g style="clip-path:url(#SVGID_00000138565257786083797960000008812809774107972793_);">
				
					<rect x="194.52" y="26.44" transform="matrix(0.963 -0.2693 0.2693 0.963 -25.6814 57.4342)" class="st75" width="3.88" height="191.74"/>
			</g>
			<g style="clip-path:url(#SVGID_00000138565257786083797960000008812809774107972793_);">
				
					<rect x="192.03" y="27.13" transform="matrix(0.963 -0.2693 0.2693 0.963 -25.9617 56.79)" class="st76" width="3.88" height="191.74"/>
			</g>
			<g style="clip-path:url(#SVGID_00000138565257786083797960000008812809774107972793_);">
				
					<rect x="189.54" y="27.83" transform="matrix(0.963 -0.2694 0.2694 0.963 -26.2449 56.1551)" class="st77" width="3.88" height="191.74"/>
			</g>
			<g style="clip-path:url(#SVGID_00000138565257786083797960000008812809774107972793_);">
				
					<rect x="187.05" y="28.53" transform="matrix(0.963 -0.2694 0.2694 0.963 -26.5245 55.5082)" class="st78" width="3.88" height="191.74"/>
			</g>
			<g style="clip-path:url(#SVGID_00000138565257786083797960000008812809774107972793_);">
				
					<rect x="184.55" y="29.23" transform="matrix(0.963 -0.2694 0.2694 0.963 -26.8064 54.8684)" class="st79" width="3.88" height="191.74"/>
			</g>
			<g style="clip-path:url(#SVGID_00000138565257786083797960000008812809774107972793_);">
				
					<rect x="182.06" y="29.92" transform="matrix(0.963 -0.2694 0.2694 0.963 -27.0854 54.2197)" class="st80" width="3.88" height="191.74"/>
			</g>
			<g style="clip-path:url(#SVGID_00000138565257786083797960000008812809774107972793_);">
				
					<rect x="179.57" y="30.62" transform="matrix(0.963 -0.2693 0.2693 0.963 -27.3608 53.5606)" class="st81" width="3.88" height="191.74"/>
			</g>
			<g style="clip-path:url(#SVGID_00000138565257786083797960000008812809774107972793_);">
				
					<rect x="177.08" y="31.32" transform="matrix(0.963 -0.2694 0.2694 0.963 -27.6444 52.9253)" class="st82" width="3.88" height="191.74"/>
			</g>
			<g style="clip-path:url(#SVGID_00000138565257786083797960000008812809774107972793_);">
				
					<rect x="174.58" y="32.01" transform="matrix(0.963 -0.2693 0.2693 0.963 -27.9216 52.2723)" class="st83" width="3.88" height="191.74"/>
			</g>
			<g style="clip-path:url(#SVGID_00000138565257786083797960000008812809774107972793_);">
				
					<rect x="172.09" y="32.71" transform="matrix(0.963 -0.2693 0.2693 0.963 -28.2015 51.6266)" class="st84" width="3.88" height="191.74"/>
			</g>
			<g style="clip-path:url(#SVGID_00000138565257786083797960000008812809774107972793_);">
				
					<rect x="169.6" y="33.41" transform="matrix(0.963 -0.2693 0.2693 0.963 -28.4804 50.9782)" class="st85" width="3.88" height="191.74"/>
			</g>
			<g style="clip-path:url(#SVGID_00000138565257786083797960000008812809774107972793_);">
				
					<rect x="167.1" y="34.11" transform="matrix(0.963 -0.2694 0.2694 0.963 -28.7647 50.3436)" class="st86" width="3.88" height="191.74"/>
			</g>
			<g style="clip-path:url(#SVGID_00000138565257786083797960000008812809774107972793_);">
				
					<rect x="164.61" y="34.8" transform="matrix(0.963 -0.2694 0.2694 0.963 -29.0442 49.6968)" class="st87" width="3.88" height="191.74"/>
			</g>
			<g style="clip-path:url(#SVGID_00000138565257786083797960000008812809774107972793_);">
				
					<rect x="162.12" y="35.5" transform="matrix(0.963 -0.2694 0.2694 0.963 -29.3253 49.0537)" class="st88" width="3.88" height="191.74"/>
			</g>
			<g style="clip-path:url(#SVGID_00000138565257786083797960000008812809774107972793_);">
				
					<rect x="159.63" y="36.2" transform="matrix(0.963 -0.2694 0.2694 0.963 -29.6041 48.4053)" class="st89" width="3.88" height="191.74"/>
			</g>
			<g style="clip-path:url(#SVGID_00000138565257786083797960000008812809774107972793_);">
				
					<rect x="157.13" y="36.89" transform="matrix(0.963 -0.2694 0.2694 0.963 -29.8853 47.7622)" class="st90" width="3.88" height="191.74"/>
			</g>
			<g style="clip-path:url(#SVGID_00000138565257786083797960000008812809774107972793_);">
				
					<rect x="154.64" y="37.59" transform="matrix(0.963 -0.2694 0.2694 0.963 -30.1641 47.1139)" class="st90" width="3.88" height="191.74"/>
			</g>
			<g style="clip-path:url(#SVGID_00000138565257786083797960000008812809774107972793_);">
				
					<rect x="152.15" y="38.29" transform="matrix(0.963 -0.2694 0.2694 0.963 -30.444 46.4682)" class="st91" width="3.88" height="191.74"/>
			</g>
			<g style="clip-path:url(#SVGID_00000138565257786083797960000008812809774107972793_);">
				
					<rect x="149.66" y="38.99" transform="matrix(0.963 -0.2694 0.2694 0.963 -30.722 45.8185)" class="st91" width="3.88" height="191.74"/>
			</g>
			<g style="clip-path:url(#SVGID_00000138565257786083797960000008812809774107972793_);">
				
					<rect x="147.16" y="39.68" transform="matrix(0.963 -0.2693 0.2693 0.963 -31.0007 45.1703)" class="st92" width="3.88" height="191.74"/>
			</g>
			<g style="clip-path:url(#SVGID_00000138565257786083797960000008812809774107972793_);">
				
					<rect x="144.67" y="40.38" transform="matrix(0.963 -0.2693 0.2693 0.963 -31.2786 44.5208)" class="st93" width="3.88" height="191.74"/>
			</g>
			<g style="clip-path:url(#SVGID_00000138565257786083797960000008812809774107972793_);">
				
					<rect x="142.18" y="41.08" transform="matrix(0.963 -0.2694 0.2694 0.963 -31.5652 43.8878)" class="st93" width="3.88" height="191.74"/>
			</g>
			<g style="clip-path:url(#SVGID_00000138565257786083797960000008812809774107972793_);">
				
					<rect x="139.68" y="41.78" transform="matrix(0.963 -0.2694 0.2694 0.963 -31.8465 43.2444)" class="st94" width="3.88" height="191.74"/>
			</g>
			<g style="clip-path:url(#SVGID_00000138565257786083797960000008812809774107972793_);">
				
					<rect x="137.19" y="42.47" transform="matrix(0.963 -0.2694 0.2694 0.963 -32.1238 42.5939)" class="st94" width="3.88" height="191.74"/>
			</g>
			<g style="clip-path:url(#SVGID_00000138565257786083797960000008812809774107972793_);">
				
					<rect x="134.7" y="43.17" transform="matrix(0.963 -0.2694 0.2694 0.963 -32.4038 41.9482)" class="st95" width="3.88" height="191.74"/>
			</g>
			<g style="clip-path:url(#SVGID_00000138565257786083797960000008812809774107972793_);">
				
					<rect x="132.21" y="43.87" transform="matrix(0.963 -0.2693 0.2693 0.963 -32.6802 41.2965)" class="st96" width="3.88" height="191.74"/>
			</g>
			<g style="clip-path:url(#SVGID_00000138565257786083797960000008812809774107972793_);">
				
					<rect x="129.71" y="44.56" transform="matrix(0.963 -0.2694 0.2694 0.963 -32.9637 40.6568)" class="st96" width="3.88" height="191.74"/>
			</g>
			<g style="clip-path:url(#SVGID_00000138565257786083797960000008812809774107972793_);">
				
					<rect x="127.22" y="45.26" transform="matrix(0.963 -0.2694 0.2694 0.963 -33.2451 40.0133)" class="st96" width="3.88" height="191.74"/>
			</g>
			<g style="clip-path:url(#SVGID_00000138565257786083797960000008812809774107972793_);">
				
					<rect x="124.73" y="45.96" transform="matrix(0.963 -0.2693 0.2693 0.963 -33.5185 39.3574)" class="st97" width="3.88" height="191.74"/>
			</g>
			<g style="clip-path:url(#SVGID_00000138565257786083797960000008812809774107972793_);">
				
					<rect x="122.24" y="46.66" transform="matrix(0.963 -0.2694 0.2694 0.963 -33.8042 38.7206)" class="st98" width="3.88" height="191.74"/>
			</g>
			<g style="clip-path:url(#SVGID_00000138565257786083797960000008812809774107972793_);">
				
					<rect x="119.74" y="47.35" transform="matrix(0.963 -0.2694 0.2694 0.963 -34.0828 38.0727)" class="st99" width="3.88" height="191.74"/>
			</g>
			<g style="clip-path:url(#SVGID_00000138565257786083797960000008812809774107972793_);">
				
					<rect x="117.25" y="48.05" transform="matrix(0.963 -0.2694 0.2694 0.963 -34.3635 37.4282)" class="st99" width="3.88" height="191.74"/>
			</g>
			<g style="clip-path:url(#SVGID_00000138565257786083797960000008812809774107972793_);">
				
					<rect x="114.76" y="48.75" transform="matrix(0.963 -0.2694 0.2694 0.963 -34.6465 36.7867)" class="st100" width="3.88" height="191.74"/>
			</g>
			<g style="clip-path:url(#SVGID_00000138565257786083797960000008812809774107972793_);">
				
					<rect x="112.27" y="49.44" transform="matrix(0.963 -0.2694 0.2694 0.963 -34.9235 36.1368)" class="st101" width="3.88" height="191.74"/>
			</g>
			<g style="clip-path:url(#SVGID_00000138565257786083797960000008812809774107972793_);">
				
					<rect x="109.77" y="50.14" transform="matrix(0.963 -0.2693 0.2693 0.963 -35.1979 35.4838)" class="st102" width="3.88" height="191.74"/>
			</g>
			<g style="clip-path:url(#SVGID_00000138565257786083797960000008812809774107972793_);">
				
					<rect x="110.46" y="50.4" transform="matrix(0.9631 -0.2691 0.2691 0.9631 -35.2791 35.2118)" class="st103" width="0.64" height="191.74"/>
			</g>
		</g>
	</g>
	<g>
		<path class="st104" d="M152.07,142.38c-0.02,0.09-0.06,0.16-0.12,0.21c-0.06,0.04-0.14,0.07-0.22,0.07l-6.23,0.01
			c-0.02,0-0.03,0-0.05,0c-0.01,0-0.02,0-0.03,0c-0.06-0.01-0.1-0.04-0.13-0.09c-0.03-0.05-0.04-0.1-0.03-0.15l0.15-0.83
			c0.03-0.16,0.11-0.23,0.24-0.23l4.4,0l-2.6-1.35c-0.05-0.03-0.09-0.07-0.14-0.13c-0.04-0.06-0.06-0.13-0.04-0.23l0.09-0.51
			c0.02-0.1,0.06-0.17,0.12-0.2c0.06-0.03,0.12-0.05,0.17-0.06l2.9-0.35l-4.1-1.56c-0.12-0.04-0.17-0.14-0.14-0.3l0.15-0.83
			c0.01-0.05,0.04-0.09,0.08-0.12c0.04-0.03,0.1-0.04,0.15-0.03c0.01,0,0.02,0,0.03,0c0.01,0,0.03,0.01,0.05,0.02l5.81,2.23
			c0.08,0.03,0.14,0.07,0.18,0.14c0.04,0.07,0.05,0.14,0.04,0.24l-0.12,0.63c-0.02,0.09-0.06,0.16-0.12,0.21
			c-0.06,0.04-0.12,0.07-0.18,0.08l-3.33,0.47l2.94,1.63c0.05,0.03,0.1,0.08,0.14,0.14c0.04,0.06,0.05,0.14,0.03,0.24L152.07,142.38
			z"/>
		<path class="st104" d="M153.85,133.86c-0.02,0.06-0.05,0.11-0.11,0.14c-0.05,0.03-0.11,0.04-0.17,0.02l-5.99-1.67
			c-0.07-0.02-0.12-0.06-0.15-0.11c-0.03-0.06-0.04-0.11-0.02-0.18l1.13-4.05c0.02-0.07,0.06-0.12,0.11-0.15
			c0.05-0.03,0.12-0.04,0.18-0.02l0.61,0.17c0.06,0.02,0.11,0.05,0.14,0.11c0.03,0.05,0.04,0.12,0.02,0.18l-0.84,3.03l1.63,0.45
			l0.79-2.82c0.02-0.07,0.05-0.12,0.11-0.15c0.05-0.03,0.11-0.04,0.18-0.02l0.57,0.16c0.07,0.02,0.12,0.06,0.14,0.11
			c0.03,0.05,0.03,0.11,0.01,0.18l-0.79,2.83l1.68,0.47l0.86-3.1c0.02-0.07,0.06-0.12,0.11-0.15c0.05-0.03,0.12-0.04,0.18-0.02
			l0.61,0.17c0.06,0.02,0.11,0.05,0.14,0.11c0.03,0.06,0.04,0.12,0.02,0.18L153.85,133.86z"/>
		<path class="st104" d="M157.45,122.69c-0.02,0.06-0.07,0.1-0.12,0.12c-0.06,0.02-0.12,0.02-0.18,0l-5.73-2.4
			c-0.06-0.03-0.11-0.07-0.13-0.13c-0.02-0.06-0.02-0.12,0-0.17l1.07-2.55c0.2-0.48,0.43-0.83,0.7-1.07
			c0.27-0.24,0.56-0.38,0.87-0.42c0.31-0.04,0.64,0.01,0.97,0.15c0.22,0.09,0.4,0.22,0.54,0.36c0.13,0.15,0.23,0.3,0.29,0.46
			c0.06,0.16,0.09,0.31,0.1,0.44c0.2-0.19,0.46-0.31,0.78-0.39c0.32-0.07,0.65-0.04,0.99,0.1c0.35,0.15,0.63,0.36,0.84,0.63
			c0.21,0.27,0.33,0.6,0.35,0.98s-0.06,0.79-0.25,1.25L157.45,122.69z M154.24,120.15l0.58-1.38c0.13-0.31,0.15-0.58,0.07-0.79
			c-0.08-0.22-0.25-0.38-0.49-0.48c-0.25-0.1-0.47-0.11-0.68-0.01s-0.38,0.3-0.5,0.61l-0.58,1.38L154.24,120.15z M156.94,121.28
			l0.62-1.47c0.13-0.32,0.15-0.59,0.04-0.83c-0.1-0.24-0.28-0.41-0.53-0.51c-0.26-0.11-0.51-0.11-0.75-0.02
			c-0.24,0.1-0.43,0.3-0.56,0.61l-0.62,1.47L156.94,121.28z"/>
		<path class="st104" d="M162.04,112.95c-0.26,0.49-0.57,0.87-0.92,1.14c-0.36,0.27-0.76,0.42-1.21,0.43
			c-0.45,0.02-0.95-0.12-1.49-0.41l-3.44-1.81c-0.06-0.03-0.1-0.08-0.12-0.14s-0.01-0.12,0.02-0.17l0.4-0.77
			c0.03-0.06,0.08-0.1,0.14-0.12c0.06-0.02,0.12-0.01,0.18,0.02l3.44,1.81c0.46,0.24,0.86,0.31,1.2,0.21
			c0.34-0.1,0.61-0.35,0.81-0.73c0.2-0.38,0.25-0.74,0.14-1.08c-0.11-0.33-0.39-0.62-0.85-0.87l-3.44-1.81
			c-0.06-0.03-0.1-0.08-0.12-0.14c-0.02-0.06-0.01-0.12,0.02-0.18l0.4-0.76c0.03-0.06,0.08-0.1,0.14-0.12
			c0.06-0.02,0.12-0.01,0.18,0.03l3.44,1.81c0.54,0.29,0.93,0.62,1.18,0.99c0.24,0.38,0.35,0.79,0.33,1.23
			C162.45,111.98,162.31,112.45,162.04,112.95z"/>
		<path class="st104" d="M165,107.56c-0.03,0.05-0.08,0.09-0.14,0.1c-0.06,0.02-0.12,0.01-0.17-0.03l-5.29-3.28
			c-0.05-0.03-0.09-0.08-0.1-0.14c-0.01-0.06-0.01-0.12,0.03-0.17l0.47-0.76c0.04-0.06,0.08-0.1,0.14-0.11
			c0.06-0.01,0.12,0,0.17,0.03l5.29,3.28c0.05,0.03,0.09,0.08,0.11,0.14s0.01,0.12-0.03,0.18L165,107.56z"/>
		<path class="st104" d="M167.53,103.62c-0.04,0.05-0.09,0.08-0.15,0.09c-0.06,0.01-0.12,0-0.17-0.04l-5.08-3.6
			c-0.05-0.04-0.08-0.09-0.09-0.15c-0.01-0.06,0-0.12,0.04-0.17l0.51-0.72c0.04-0.05,0.09-0.08,0.15-0.09
			c0.06-0.01,0.12,0,0.17,0.04l4.34,3.08l1.75-2.47c0.04-0.06,0.09-0.09,0.15-0.1c0.06-0.01,0.12,0,0.18,0.05l0.54,0.39
			c0.05,0.04,0.08,0.09,0.09,0.15c0.01,0.06,0,0.12-0.05,0.18L167.53,103.62z"/>
		<path class="st104" d="M171.87,97.74c-0.04,0.05-0.09,0.08-0.16,0.08c-0.06,0.01-0.12-0.01-0.17-0.05l-4.76-4
			c-0.05-0.05-0.08-0.1-0.09-0.16c0-0.06,0.01-0.12,0.05-0.17l1.5-1.78c0.41-0.49,0.83-0.83,1.25-1.03
			c0.42-0.19,0.85-0.24,1.28-0.16c0.43,0.09,0.87,0.31,1.3,0.66c0.22,0.17,0.42,0.33,0.58,0.47c0.17,0.14,0.35,0.3,0.55,0.49
			c0.45,0.39,0.75,0.79,0.91,1.19c0.16,0.4,0.19,0.82,0.06,1.26c-0.12,0.43-0.39,0.9-0.8,1.38L171.87,97.74z M171.73,96.19
			l0.79-0.94c0.23-0.27,0.38-0.53,0.44-0.76c0.06-0.24,0.05-0.47-0.06-0.69c-0.1-0.23-0.3-0.46-0.58-0.7
			c-0.14-0.13-0.27-0.24-0.38-0.33c-0.11-0.09-0.22-0.19-0.33-0.28c-0.11-0.09-0.24-0.19-0.39-0.3c-0.41-0.33-0.79-0.47-1.14-0.44
			c-0.35,0.03-0.7,0.25-1.05,0.67l-0.76,0.91L171.73,96.19z"/>
		<path class="st104" d="M180.83,87.99c-0.07,0.06-0.14,0.09-0.22,0.09c-0.08,0-0.15-0.03-0.22-0.08l-4.97-3.76
			c-0.01-0.01-0.02-0.02-0.04-0.03c-0.01-0.01-0.02-0.01-0.02-0.02c-0.04-0.04-0.06-0.09-0.05-0.15c0.01-0.06,0.03-0.1,0.06-0.13
			l0.62-0.57c0.12-0.11,0.23-0.12,0.33-0.04l3.5,2.66l-1.25-2.65c-0.02-0.05-0.03-0.11-0.03-0.19c0-0.07,0.03-0.14,0.1-0.2
			l0.38-0.35c0.08-0.07,0.15-0.1,0.22-0.09c0.07,0.01,0.13,0.03,0.17,0.06l2.52,1.48l-2.32-3.72c-0.07-0.11-0.05-0.21,0.07-0.32
			l0.62-0.57c0.04-0.03,0.08-0.05,0.14-0.05c0.05,0,0.1,0.02,0.14,0.07c0,0.01,0.01,0.01,0.02,0.02c0.01,0.01,0.02,0.02,0.03,0.04
			l3.29,5.29c0.05,0.07,0.07,0.14,0.06,0.22s-0.04,0.15-0.11,0.21l-0.47,0.43c-0.07,0.06-0.14,0.1-0.22,0.09s-0.14-0.02-0.19-0.05
			l-2.94-1.64l1.36,3.08c0.02,0.06,0.03,0.12,0.02,0.2c0,0.07-0.04,0.14-0.12,0.21L180.83,87.99z"/>
		<path class="st104" d="M187.43,82.27c-0.05,0.04-0.11,0.06-0.17,0.05c-0.06-0.01-0.11-0.04-0.15-0.09l-3.85-4.9
			c-0.04-0.05-0.06-0.11-0.05-0.17s0.04-0.11,0.09-0.15l0.71-0.55c0.05-0.04,0.11-0.06,0.17-0.05c0.06,0.01,0.11,0.04,0.15,0.09
			l3.85,4.9c0.04,0.05,0.06,0.1,0.05,0.17c-0.01,0.06-0.04,0.11-0.09,0.16L187.43,82.27z"/>
		<path class="st104" d="M192.36,78.61c-0.05,0.04-0.11,0.05-0.17,0.04c-0.06-0.01-0.11-0.04-0.15-0.1l-2.99-4.35l-1.46,1
			c-0.05,0.04-0.11,0.05-0.17,0.04c-0.06-0.01-0.11-0.04-0.15-0.1l-0.4-0.58c-0.04-0.06-0.05-0.12-0.04-0.18
			c0.01-0.06,0.04-0.11,0.1-0.15l4.01-2.76c0.06-0.04,0.12-0.05,0.18-0.04c0.06,0.01,0.11,0.05,0.15,0.1l0.4,0.58
			c0.04,0.05,0.05,0.11,0.04,0.17c-0.01,0.06-0.05,0.11-0.1,0.15l-1.45,1l2.99,4.35c0.04,0.05,0.05,0.11,0.04,0.17
			c-0.01,0.06-0.05,0.11-0.1,0.15L192.36,78.61z"/>
		<path class="st104" d="M197.42,75.28c-0.06,0.03-0.11,0.04-0.17,0.03c-0.06-0.01-0.11-0.05-0.14-0.11l-3.08-5.4
			c-0.04-0.06-0.04-0.12-0.03-0.18c0.02-0.06,0.05-0.11,0.11-0.14l0.75-0.43c0.06-0.03,0.12-0.04,0.18-0.02
			c0.06,0.02,0.1,0.06,0.14,0.12l1.22,2.14l2.45-1.4l-1.22-2.14c-0.04-0.06-0.04-0.12-0.03-0.18c0.02-0.06,0.05-0.11,0.11-0.14
			l0.75-0.43c0.06-0.04,0.12-0.04,0.18-0.03c0.06,0.02,0.11,0.06,0.14,0.12l3.08,5.4c0.03,0.06,0.04,0.11,0.02,0.17
			c-0.02,0.06-0.06,0.11-0.12,0.14l-0.75,0.43c-0.06,0.03-0.11,0.04-0.17,0.02c-0.06-0.02-0.11-0.05-0.14-0.11l-1.27-2.22l-2.45,1.4
			l1.27,2.22c0.03,0.06,0.04,0.11,0.03,0.17c-0.01,0.06-0.05,0.11-0.11,0.14L197.42,75.28z"/>
		<path class="st104" d="M210.99,68.61c-0.55,0.22-1.05,0.32-1.51,0.28c-0.46-0.04-0.86-0.19-1.21-0.47
			c-0.35-0.27-0.63-0.66-0.86-1.15c-0.1-0.24-0.21-0.5-0.33-0.77c-0.11-0.28-0.22-0.54-0.32-0.8c-0.18-0.5-0.24-0.98-0.18-1.42
			c0.06-0.44,0.24-0.84,0.54-1.18c0.3-0.35,0.72-0.63,1.27-0.85c0.4-0.16,0.78-0.26,1.14-0.28c0.36-0.02,0.69,0.01,0.99,0.11
			c0.3,0.09,0.56,0.24,0.79,0.44c0.23,0.2,0.4,0.44,0.52,0.73c0.03,0.05,0.03,0.1,0.01,0.15c-0.02,0.05-0.06,0.09-0.12,0.11
			l-0.84,0.34c-0.06,0.03-0.12,0.03-0.18,0.02c-0.06-0.02-0.11-0.06-0.16-0.13c-0.25-0.35-0.52-0.55-0.81-0.6
			c-0.29-0.05-0.6,0-0.94,0.14c-0.4,0.16-0.67,0.4-0.81,0.72c-0.15,0.32-0.12,0.73,0.06,1.25c0.18,0.49,0.38,0.99,0.61,1.49
			c0.22,0.5,0.5,0.81,0.83,0.94c0.33,0.12,0.69,0.11,1.08-0.05c0.34-0.14,0.6-0.33,0.77-0.57c0.17-0.24,0.23-0.57,0.16-0.99
			c-0.02-0.09-0.01-0.16,0.02-0.2c0.03-0.05,0.08-0.08,0.14-0.11l0.84-0.34c0.05-0.02,0.11-0.02,0.16,0
			c0.05,0.02,0.09,0.06,0.1,0.11c0.11,0.29,0.16,0.59,0.13,0.88c-0.02,0.3-0.11,0.59-0.26,0.86c-0.15,0.28-0.36,0.53-0.63,0.77
			C211.73,68.25,211.39,68.45,210.99,68.61z"/>
		<path class="st104" d="M215.83,66.65c-0.05,0.01-0.1,0.01-0.15-0.01c-0.05-0.02-0.08-0.06-0.1-0.12
			c-0.01-0.02-0.01-0.05-0.01-0.09l0.37-6.57c0-0.07,0.02-0.13,0.06-0.19c0.04-0.06,0.1-0.11,0.19-0.13l0.99-0.31
			c0.09-0.03,0.17-0.03,0.23,0c0.06,0.03,0.12,0.07,0.16,0.13l4.02,5.2c0.02,0.03,0.03,0.05,0.04,0.08
			c0.02,0.05,0.01,0.11-0.01,0.15c-0.03,0.05-0.06,0.08-0.11,0.09l-0.79,0.25c-0.08,0.03-0.15,0.03-0.21,0
			c-0.05-0.03-0.09-0.06-0.11-0.09l-0.77-0.98l-2.71,0.84l-0.08,1.25c0,0.04-0.01,0.09-0.04,0.14c-0.03,0.05-0.08,0.09-0.17,0.12
			L215.83,66.65z M216.91,63.75l2.07-0.64l-1.92-2.5L216.91,63.75z"/>
		<path class="st104" d="M224.49,64.13c-0.06,0.01-0.12,0-0.17-0.03c-0.05-0.03-0.09-0.08-0.1-0.14l-1.33-6.07
			c-0.02-0.07-0.01-0.13,0.03-0.18c0.03-0.05,0.08-0.09,0.14-0.1l2.42-0.53c0.75-0.17,1.38-0.12,1.9,0.13
			c0.51,0.25,0.84,0.71,0.99,1.38c0.1,0.46,0.07,0.87-0.09,1.22c-0.16,0.35-0.41,0.64-0.76,0.86l1.88,2.08
			c0.03,0.03,0.04,0.06,0.05,0.1c0.01,0.06,0,0.11-0.03,0.15c-0.03,0.05-0.07,0.07-0.12,0.08l-0.85,0.19
			c-0.11,0.02-0.19,0.01-0.26-0.03c-0.07-0.04-0.12-0.09-0.17-0.14l-1.69-1.95l-1.3,0.28l0.49,2.24c0.01,0.06,0.01,0.12-0.03,0.17
			c-0.03,0.05-0.08,0.09-0.15,0.1L224.49,64.13z M224.79,60.38l1.32-0.29c0.38-0.08,0.64-0.23,0.79-0.44
			c0.15-0.21,0.19-0.47,0.12-0.78c-0.07-0.31-0.21-0.53-0.43-0.67c-0.22-0.14-0.53-0.16-0.91-0.08l-1.32,0.29L224.79,60.38z"/>
		<path class="st104" d="M232.57,62.54c-0.06,0.01-0.12-0.01-0.17-0.04c-0.05-0.04-0.08-0.09-0.09-0.15l-0.82-6.16
			c-0.01-0.07,0-0.13,0.04-0.18c0.04-0.05,0.09-0.08,0.15-0.09l4.17-0.55c0.07-0.01,0.13,0.01,0.18,0.04
			c0.05,0.04,0.08,0.09,0.09,0.16l0.08,0.62c0.01,0.06-0.01,0.12-0.04,0.17c-0.04,0.05-0.09,0.08-0.16,0.09l-3.11,0.42l0.22,1.68
			l2.91-0.39c0.07-0.01,0.13,0,0.18,0.04c0.05,0.04,0.08,0.09,0.09,0.16l0.08,0.59c0.01,0.07-0.01,0.13-0.04,0.17
			c-0.04,0.05-0.09,0.07-0.16,0.08l-2.91,0.39l0.23,1.73l3.19-0.42c0.07-0.01,0.13,0.01,0.18,0.04c0.05,0.04,0.08,0.09,0.09,0.16
			l0.08,0.63c0.01,0.06-0.01,0.12-0.04,0.17c-0.04,0.05-0.09,0.08-0.16,0.09L232.57,62.54z"/>
	</g>
	<g>
		
			<linearGradient id="SVGID_00000083068688739961118400000013870433887018653351_" gradientUnits="userSpaceOnUse" x1="236.6677" y1="300.6094" x2="240.2198" y2="93.6959">
			<stop  offset="0" style="stop-color:#3F7CBE"/>
			<stop  offset="1" style="stop-color:#40C0C9"/>
		</linearGradient>
		<path style="fill:url(#SVGID_00000083068688739961118400000013870433887018653351_);" d="M232.36,178.74c2.21,0.01,4.41,0,6.62,0
			c2.21,0,4.41,0.01,6.62,0c1.41-0.01,1.76-0.36,1.76-1.79c0.01-4.46,0.01-8.91,0-13.37c0-1.36-0.36-1.72-1.69-1.72
			c-4.5-0.01-9-0.01-13.49,0c-1.45,0-1.73,0.3-1.74,1.78c-0.01,4.42-0.01,8.83,0,13.25C230.44,178.46,230.72,178.73,232.36,178.74z"
			/>
		
			<linearGradient id="SVGID_00000083810203650451479450000005783547289977333432_" gradientUnits="userSpaceOnUse" x1="258.8766" y1="300.9907" x2="262.4287" y2="94.0772">
			<stop  offset="0" style="stop-color:#3F7CBE"/>
			<stop  offset="1" style="stop-color:#40C0C9"/>
		</linearGradient>
		<path style="fill:url(#SVGID_00000083810203650451479450000005783547289977333432_);" d="M252.67,177.04
			c0.01,1.36,0.34,1.69,1.71,1.7c4.5,0.01,8.99,0.01,13.49,0c1.37,0,1.71-0.34,1.71-1.7c0.01-4.5,0.01-9,0-13.49
			c0-1.36-0.34-1.68-1.71-1.69c-4.5-0.01-8.99-0.01-13.49,0c-1.38,0-1.7,0.32-1.7,1.69c-0.01,2.25,0,4.5,0,6.75
			C252.66,172.54,252.65,174.79,252.67,177.04z"/>
		
			<linearGradient id="SVGID_00000076564380835466009940000002400147330665656226_" gradientUnits="userSpaceOnUse" x1="259.2565" y1="300.9972" x2="262.8087" y2="94.0837">
			<stop  offset="0" style="stop-color:#3F7CBE"/>
			<stop  offset="1" style="stop-color:#40C0C9"/>
		</linearGradient>
		<path style="fill:url(#SVGID_00000076564380835466009940000002400147330665656226_);" d="M254.29,200.94c2.29,0.01,4.58,0,6.87,0
			c2.29,0,4.58,0.01,6.87-0.01c1.17-0.01,1.54-0.34,1.54-1.46c0.02-4.62,0.02-9.24,0-13.86c0-1.15-0.37-1.5-1.5-1.5
			c-4.62-0.01-9.24-0.01-13.86,0c-1.21,0-1.54,0.34-1.54,1.59c-0.01,4.54-0.01,9.08,0,13.62
			C252.67,200.63,252.97,200.93,254.29,200.94z"/>
		
			<linearGradient id="SVGID_00000150067874038803264180000005328696116018916012_" gradientUnits="userSpaceOnUse" x1="237.0491" y1="300.6159" x2="240.6013" y2="93.7024">
			<stop  offset="0" style="stop-color:#3F7CBE"/>
			<stop  offset="1" style="stop-color:#40C0C9"/>
		</linearGradient>
		<path style="fill:url(#SVGID_00000150067874038803264180000005328696116018916012_);" d="M232,200.93c4.58,0.01,9.16,0.01,13.74,0
			c1.28,0,1.62-0.35,1.63-1.65c0.01-4.5,0.01-8.99,0-13.49c0-1.36-0.35-1.69-1.7-1.7c-2.25-0.01-4.5,0-6.74,0
			c-2.25,0-4.5-0.01-6.74,0c-1.41,0-1.73,0.29-1.73,1.65c-0.01,4.54-0.01,9.08,0,13.62C230.45,200.59,230.78,200.93,232,200.93z"/>
		
			<linearGradient id="SVGID_00000176733436675999740110000004491835693090218925_" gradientUnits="userSpaceOnUse" x1="250.9028" y1="304.0907" x2="249.1268" y2="93.921">
			<stop  offset="0" style="stop-color:#3F7CBE"/>
			<stop  offset="1" style="stop-color:#40C0C9"/>
		</linearGradient>
		<path style="fill:url(#SVGID_00000176733436675999740110000004491835693090218925_);" d="M409.24,191.53
			c-0.46-0.36-0.95-0.67-1.43-1c-24.68-16.92-49.36-33.84-74.04-50.76c-0.39-0.44-0.56-0.95-0.55-1.67
			c0.04-8.17,0.02-16.33,0.02-24.5c0-0.33,0.01-0.67,0-1c-0.07-1.35-0.86-2.14-2.22-2.19c-0.96-0.03-1.92-0.01-2.87-0.01
			c-3.87,0-7.75,0-11.62,0c-2.34,0-3.02,0.69-3.02,3.08c0,3.67,0,7.33,0,11c0,0.39,0,0.79,0,1.39c-6.31-4.33-12.62-8.65-18.93-12.98
			c-13.12-8.99-26.23-18-39.37-26.97c-0.92-0.63-1.93-1.19-2.99-1.5c-2.7-0.79-5.13-0.1-7.43,1.48
			c-18.94,13.02-37.91,26.01-56.87,39.01c-0.43,0.3-0.88,0.57-1.52,0.99l-20.9,14.42c-23.1,15.8-46.18,31.62-69.26,47.45
			c-1.79,1.22-3.62,2.39-5.34,3.69c-2.71,2.05-3.76,4.87-3.12,8.17c0.62,3.21,2.63,5.34,5.8,6.24c2.55,0.72,4.93,0.22,7.12-1.29
			c5.96-4.11,11.95-8.2,17.93-12.29c0.37-0.25,0.75-0.48,1.22-0.79c0.15,0.51,0.27,0.89,0.37,1.28
			c8.92,35.53,28.8,63.19,59.85,82.58c19.84,12.39,41.73,18.51,65.02,19.69c12.2,0.62,24.29-0.41,36.21-3.19
			c13.59-3.17,26.28-8.44,37.91-16.2c0.66-0.44,1.3-0.91,1.88-1.44c1.27-1.18,1.68-2.66,1.26-4.33c-0.57-2.27-1.9-3.86-4.21-4.51
			c-1.79-0.5-3.61-0.56-5.45-0.39c-4.09,0.36-8.04,1.36-11.95,2.54c-5.93,1.79-11.84,3.68-17.78,5.46
			c-6.86,2.05-13.85,3.28-21.05,2.86c-7.06-0.41-13.95-1.78-20.68-3.89c-4.94-1.54-9.76-3.39-14.18-6.11
			c-1.48-0.91-2.84-2.04-4.14-3.19c-0.63-0.56-1.12-1.35-1.48-2.13c-1.02-2.21,0.03-4.46,2.36-5.14c0.67-0.2,1.4-0.33,2.09-0.28
			c1.9,0.15,3.83,0.26,5.69,0.67c3.65,0.81,7.26,1.83,10.9,2.72c3.98,0.97,7.98,1.71,12.11,1.14c2.89-0.4,5.61-1.23,7.94-3.06
			c1.23-0.96,2.29-2.07,2.89-3.54c0.65-1.56,0.39-2.43-1.11-3.19c-1.22-0.62-2.48-1.19-3.77-1.64c-12.3-4.22-24.84-7.25-37.91-7.7
			c-4.09-0.14-8.16,0.07-12.19,0.75c-6.43,1.08-12.34,3.43-17.58,7.33c-3.06,2.28-6.43,2.75-10.07,2.11
			c-3.17-0.56-6.03-1.87-8.73-3.56c-5.78-3.61-10.81-8.12-15.05-13.41c-10.54-13.16-17.71-28.03-21.73-44.41
			c-0.69-2.82-1.22-5.68-1.83-8.56c38.26-26.23,76.41-52.38,114.58-78.55c38.22,26.2,76.37,52.36,114.6,78.57
			c-6.17,33.4-23.35,59.43-51.37,78.46c0.13,0.08,0.16,0.12,0.19,0.12c0.37,0.02,0.75,0.03,1.12,0.05c2.42,0.13,4.82,0.36,7.06,1.4
			c2.21,1.03,3.75,2.67,4.21,5.08c0.25,1.29,0.16,2.64,0.18,3.97c0.01,0.48-0.1,0.96-0.19,1.74c4.12-2.82,7.8-5.71,11.36-8.77
			c3.57-3.07,6.95-6.34,10.18-9.78c3.23-3.43,6.26-7.03,9.1-10.79c2.84-3.76,5.48-7.65,7.91-11.68c2.43-4.03,4.64-8.18,6.63-12.45
			c1.99-4.27,3.82-8.6,5.26-13.09c1.43-4.44,2.69-8.94,4.05-13.47c0.39,0.26,0.74,0.47,1.08,0.7c5.84,4,11.68,8.01,17.52,12.01
			c0.41,0.28,0.82,0.57,1.25,0.82c3.7,2.13,8.46,1.04,10.86-2.48C413.43,199.05,412.66,194.16,409.24,191.53z"/>
	</g>
</g>
</svg>
